<svg width="166" height="36" viewBox="0 0 166 36" fill="none" xmlns="http://www.w3.org/2000/svg">
<path d="M11.404 5.58V8.676C11.656 13.68 11.836 17.64 11.548 25.596C11.548 26.172 11.044 26.604 10.468 26.604C9.892 26.604 9.46 26.1 9.46 25.524C9.748 17.64 9.568 13.716 9.28 8.82C9.28 8.748 9.28 7.668 9.316 5.544C9.316 4.32 9.208 3.42 9.028 2.808C8.992 2.772 8.884 2.7 8.74 2.664C8.056 2.412 7.048 2.448 6.364 2.736C6.256 2.772 6.148 2.844 6.076 2.88C6.04 3.06 6.04 3.348 6.076 3.708C6.076 3.816 6.076 3.924 6.112 4.068C6.148 4.212 6.148 4.32 6.148 4.356C6.184 4.644 6.184 4.896 6.184 5.112C6.184 5.148 6.22 6.444 6.256 8.964C6.328 14.04 6.256 17.964 5.932 20.988C5.5 24.912 4.492 26.712 1.288 26.964C0.712 27 0.208 26.568 0.172 25.992C0.136 25.416 0.568 24.912 1.144 24.876C3.016 24.732 3.484 24.012 3.88 20.736C4.168 17.856 4.24 14.004 4.168 8.964C4.132 6.444 4.096 5.148 4.096 5.112C4.096 4.968 4.096 4.788 4.06 4.572C4.06 4.536 4.06 4.428 4.024 4.248C3.988 4.104 3.988 3.996 3.988 3.924C3.88 2.628 3.988 1.476 5.572 0.791998C6.688 0.36 8.308 0.287998 9.424 0.719999C11.044 1.296 11.404 2.592 11.404 5.58ZM22.2659 5.796L21.9779 6.912C21.8339 7.488 21.2579 7.812 20.7179 7.668C20.1419 7.524 19.8179 6.948 19.9619 6.408L20.2499 5.292C20.3939 4.716 20.9699 4.392 21.5459 4.536C22.0859 4.68 22.4099 5.256 22.2659 5.796ZM16.7579 6.012L16.3619 7.02C16.1819 7.56 15.5699 7.776 15.0299 7.596C14.4539 7.416 14.2379 6.804 14.4179 6.228L14.8139 5.22C14.9939 4.68 15.6059 4.464 16.1819 4.644C16.7219 4.824 16.9379 5.436 16.7579 6.012ZM16.9739 18.18C17.0819 20.592 17.3699 22.428 17.7659 23.616C18.1979 25.02 19.3859 25.452 20.1419 24.552C20.5379 24.12 21.1859 24.048 21.6179 24.444C22.0499 24.84 22.1219 25.488 21.7259 25.92C20.7179 27.072 19.3499 27.396 18.1619 26.928C15.8579 26.064 15.4979 23.832 15.1379 20.916C14.7779 18.036 14.6699 14.616 15.2099 12.204C15.5339 10.656 16.0379 9.54 16.7939 8.928C17.8379 8.064 18.9899 8.208 19.9619 8.964C21.3659 10.08 22.4459 12.744 22.4819 14.868C22.5179 16.2 22.1939 17.172 21.4739 17.784C21.1499 18.072 20.5739 18.144 20.1059 18.18C19.7099 18.216 19.2059 18.216 18.5939 18.216C18.1259 18.216 17.5859 18.216 16.9739 18.18ZM20.2139 16.056C20.3579 15.84 20.4299 15.48 20.3939 14.94C20.3579 13.32 19.4939 11.268 18.6659 10.584C18.5219 10.476 18.4139 10.44 18.3419 10.44C18.3059 10.404 18.2339 10.44 18.1619 10.512C17.4059 11.124 16.9379 13.356 16.9379 16.092C17.5859 16.128 18.1259 16.128 18.5939 16.128C19.1339 16.128 19.6019 16.128 19.9259 16.092C20.0339 16.092 20.1419 16.092 20.2139 16.056ZM25.0668 10.008V9.396C25.0668 9.288 25.0668 9.216 25.1028 9.18C25.1388 9 25.1748 8.82 25.2468 8.676C26.1108 7.236 27.4788 7.308 29.5308 7.308C30.1068 7.308 30.5748 7.776 30.5748 8.352C30.5748 8.928 30.1068 9.396 29.5308 9.396C28.5948 9.396 28.0188 9.396 27.8388 9.432C27.5508 9.468 27.3348 9.54 27.1548 9.648V9.972C27.1548 10.404 27.1548 11.016 27.1908 11.772C27.3348 14.688 27.8748 24.408 28.1628 26.172C28.2708 26.748 27.8748 27.288 27.2988 27.396C26.7228 27.504 26.1828 27.108 26.0748 26.532C25.7868 24.696 25.2468 14.832 25.1028 11.844C25.0668 11.052 25.0668 10.44 25.0668 10.008ZM41.7928 24.048V26.1C41.7928 26.676 41.3608 27.18 40.7848 27.18C40.2088 27.18 39.7048 26.748 39.7048 26.172V24.084C39.6688 22.356 39.6688 20.088 38.1928 18.936C37.8688 18.684 37.3648 18.504 36.6808 18.468L36.3208 18.576C36.2128 18.612 36.1408 18.612 36.0328 18.612C36.0688 21.348 36.0328 23.868 35.9608 26.172C35.9608 26.748 35.4568 27.18 34.8808 27.18C34.3048 27.18 33.8728 26.676 33.8728 26.1C34.0168 21.924 33.9808 16.128 33.7648 8.676C33.7648 8.1 34.1968 7.596 34.7728 7.596C35.3488 7.596 35.8528 8.028 35.8528 8.604C35.9608 11.664 35.9968 14.112 36.0328 16.02C36.5008 15.732 36.9688 15.336 37.4368 14.832C39.0208 13.068 39.5968 11.052 39.2008 8.82C39.0928 8.244 39.4888 7.74 40.0648 7.596C40.6408 7.488 41.1448 7.884 41.2888 8.46C41.8288 11.34 41.0728 13.932 39.0208 16.2C38.8048 16.452 38.6248 16.632 38.5168 16.74C38.8408 16.884 39.1648 17.064 39.4888 17.28C40.6768 18.18 41.3968 19.656 41.6488 21.708C41.7208 22.32 41.7568 23.112 41.7928 24.048ZM49.1196 8.064H49.6956C50.0556 8.064 50.3436 8.208 50.5596 8.496C50.6676 8.532 51.3156 8.892 51.5676 9.144C51.7836 9.36 52.0356 9.792 52.2876 10.44C52.8276 11.772 53.1876 15.48 53.2236 18.972C53.2596 20.952 53.1516 22.608 52.9356 23.976C52.7556 25.524 52.3236 26.82 51.5676 27.432C50.7036 28.116 48.8676 27.972 48.0396 27.504C47.1396 27.036 46.6356 25.668 46.3476 23.976C45.8076 20.952 45.6996 16.38 45.9876 13.032C46.1676 11.124 46.4916 9.864 46.8876 9.252C47.3196 8.604 47.8236 8.208 48.3996 8.1C48.5796 8.064 48.8316 8.064 49.1196 8.064ZM50.3436 11.232L50.1276 10.656L49.9836 10.584L49.3716 10.188C49.3356 10.188 49.3356 10.188 49.2996 10.152H48.8316C48.7956 10.188 48.7236 10.296 48.6156 10.404C48.3996 10.728 48.2196 11.664 48.0756 13.212C47.7876 16.38 47.8596 20.844 48.3996 23.58C48.5076 24.264 48.6516 24.84 48.8316 25.236C48.9036 25.416 48.9756 25.596 49.0836 25.704C49.2636 25.776 49.4796 25.812 49.7676 25.812C49.9476 25.812 50.1276 25.812 50.2716 25.776C50.3796 25.668 50.4516 25.488 50.5236 25.236C50.6676 24.84 50.7756 24.336 50.8836 23.652C51.2796 21.204 51.1716 17.244 50.8836 14.22C50.7036 12.708 50.5236 11.7 50.3436 11.232ZM58.0606 1.512C58.3846 3.204 59.2486 4.032 59.9326 4.068C60.2566 4.104 60.6166 3.96 60.9766 3.636C61.3366 3.312 61.6246 2.736 61.8766 1.872C62.0206 1.296 62.5966 0.971998 63.1726 1.116C63.7126 1.26 64.0366 1.836 63.8926 2.376C63.2086 4.86 61.6246 6.336 59.7166 6.156C57.8806 5.976 56.4766 4.248 56.0446 1.944C55.9006 1.368 56.2966 0.827998 56.8726 0.684C57.4126 0.575999 57.9526 0.971998 58.0606 1.512ZM61.6966 16.056L60.4006 20.736C59.8966 22.5 59.4646 23.904 59.1046 24.948C58.9246 25.56 58.7446 26.028 58.6366 26.352C58.5646 26.568 58.4926 26.748 58.4206 26.856C58.3846 26.964 58.3126 27.036 58.2766 27.072C57.9886 27.504 57.3766 27.756 56.8006 27.468C56.2246 27.18 56.0806 26.64 56.1886 26.064C56.1886 25.884 56.2246 25.668 56.2606 25.632V25.488C56.2246 24.912 56.2606 24.084 56.2966 23.004C56.3326 21.96 56.3686 21.168 56.3326 20.664C56.2966 18.576 56.0806 14.724 55.6846 9.108C55.6486 8.532 56.0806 8.028 56.6566 7.992C57.2326 7.956 57.7366 8.388 57.7726 8.964C58.1326 14.4 58.3486 18.108 58.4206 20.088C59.4646 16.452 60.0766 14.184 60.2926 13.212L60.3646 12.852L60.4726 12.168C60.5086 11.88 60.5806 11.628 60.6166 11.412C60.7246 10.944 60.7966 10.548 60.8326 10.26C60.8686 10.08 60.9046 9.972 60.9406 9.864C60.9406 9.72 60.9766 9.612 61.0846 9.468C61.1206 9.36 61.1926 9.288 61.3006 9.216C61.8406 8.748 62.6686 8.928 63.1006 9.684C63.2086 9.864 63.2806 10.08 63.3526 10.332C63.4966 11.052 63.6046 11.988 63.6406 12.564C63.6406 12.888 63.6406 13.14 63.6766 13.392V13.788C63.8206 15.696 63.8566 18.288 63.8566 19.872V23.112C63.8206 24.48 63.8206 25.488 63.8206 26.136C63.8206 26.712 63.3526 27.18 62.7766 27.18C62.2006 27.18 61.7326 26.712 61.7326 26.136C61.7326 20.088 61.7326 16.74 61.6966 16.056ZM86.0733 19.44L85.8573 16.776C85.7493 15.588 85.6053 13.356 85.5693 11.736C85.5333 10.944 85.5333 10.152 85.5333 9.36C85.5333 8.784 86.0013 8.316 86.5773 8.316C87.1533 8.316 87.6213 8.784 87.6213 9.36V9.54L87.6573 9.432C88.0533 8.676 88.5933 8.208 89.2053 8.028C89.6733 7.848 90.2133 7.776 90.6813 7.884C91.1493 8.028 91.3653 8.1 91.7973 8.28L92.1213 8.46C92.6613 8.712 92.8773 9.288 92.6973 9.756C94.1373 12.528 93.9573 16.92 93.3813 23.508C93.2013 25.668 91.9773 27.072 90.8253 27.324C90.1413 27.432 89.4573 27.18 88.8093 26.64C88.7373 26.604 88.6653 26.532 88.6293 26.46C88.7373 29.34 88.7373 31.932 88.5573 34.2C88.5213 34.776 88.0173 35.208 87.4413 35.172C86.8653 35.136 86.4333 34.632 86.4693 34.056C86.7213 30.996 86.6493 26.928 86.2533 21.816C86.2173 21.42 86.1813 20.628 86.0733 19.44ZM90.4653 25.236C90.5013 25.236 90.5733 25.164 90.6813 25.056C91.0413 24.588 91.2573 23.976 91.2933 23.292C91.8693 16.92 92.0493 12.168 90.5733 10.296C90.5013 10.188 90.4653 10.116 90.4293 10.008C90.0333 9.864 89.7813 9.9 89.4933 10.44C89.3133 10.836 89.1333 11.34 88.9893 12.024C88.4133 14.724 88.5213 19.152 89.2053 22.356C89.5293 23.868 89.8533 24.768 90.1773 25.056C90.2853 25.164 90.3933 25.236 90.4653 25.236ZM105.003 10.656L105.147 10.944C105.183 11.052 105.183 11.16 105.219 11.268C105.255 11.448 105.255 11.664 105.291 11.952L105.399 14.076V15.3C105.543 16.704 105.543 16.704 105.579 18.756C105.579 20.808 105.615 22.428 105.795 23.616C105.867 24.156 105.939 24.552 106.011 24.768H106.047C106.767 25.164 106.947 25.2 107.055 25.776C107.163 26.352 106.767 26.892 106.191 27C105.903 27.036 105.651 27 105.399 26.82C105.363 26.784 105.363 26.784 105.327 26.784L105.219 26.712C105.183 26.676 105.111 26.64 105.039 26.604C104.319 26.172 104.103 25.704 103.923 25.092L103.707 25.524C102.735 27.252 101.151 27.9 99.4229 26.604C97.4069 25.164 96.7229 20.052 97.3349 15.732C97.6949 13.284 98.3789 11.448 99.3869 10.26C100.683 8.712 102.375 8.316 104.499 9.324C104.967 9.576 105.183 10.188 105.003 10.656ZM103.311 15.444L103.239 14.94C103.059 13.86 102.987 13.032 102.951 12.492C102.951 12.456 102.951 12.348 102.915 12.168C102.879 11.7 102.807 11.34 102.951 10.944C102.195 10.728 101.511 10.944 100.971 11.592C99.4949 13.428 98.8109 18.072 99.4229 21.708C99.6749 23.472 100.107 24.552 100.647 24.948C101.223 25.38 101.439 25.272 101.871 24.552C102.915 22.644 103.275 18.576 103.311 15.444ZM113.757 4.572L115.557 3.708C116.529 3.168 116.853 2.772 116.601 1.584C116.493 1.044 116.889 0.503998 117.465 0.36C118.005 0.251999 118.545 0.647998 118.689 1.224C119.085 3.42 118.185 4.644 116.565 5.544C116.313 5.688 115.989 5.832 115.629 6.012C114.873 6.336 114.549 6.48 114.081 6.84C113.829 7.02 113.649 7.236 113.469 7.452C113.037 7.992 112.641 9.18 112.281 10.944C112.533 10.8 112.785 10.692 113.037 10.584C114.909 9.972 116.745 10.872 118.005 13.14C119.733 16.056 119.913 20.772 118.725 23.904C117.825 26.496 115.305 28.584 112.533 27.18C110.193 25.992 109.437 21.744 109.581 16.812C109.689 12.312 110.553 7.776 111.813 6.156C112.281 5.544 113.181 4.896 113.757 4.572ZM111.705 15.732C111.669 16.128 111.669 16.488 111.669 16.884C111.633 19.152 111.777 21.024 112.101 22.572C112.785 25.632 114.153 26.028 115.341 25.2C115.989 24.732 116.457 24.084 116.781 23.184C117.753 20.484 117.537 16.56 116.205 14.148C115.413 12.78 114.585 12.24 113.721 12.564C112.965 12.852 112.137 13.86 111.813 15.444C111.813 15.552 111.777 15.624 111.705 15.732ZM126.815 8.064H127.391C127.751 8.064 128.039 8.208 128.255 8.496C128.363 8.532 129.011 8.892 129.263 9.144C129.479 9.36 129.731 9.792 129.983 10.44C130.523 11.772 130.883 15.48 130.919 18.972C130.955 20.952 130.847 22.608 130.631 23.976C130.451 25.524 130.019 26.82 129.263 27.432C128.399 28.116 126.563 27.972 125.735 27.504C124.835 27.036 124.331 25.668 124.043 23.976C123.503 20.952 123.395 16.38 123.683 13.032C123.863 11.124 124.187 9.864 124.583 9.252C125.015 8.604 125.519 8.208 126.095 8.1C126.275 8.064 126.527 8.064 126.815 8.064ZM128.039 11.232L127.823 10.656L127.679 10.584L127.067 10.188C127.031 10.188 127.031 10.188 126.995 10.152H126.527C126.491 10.188 126.419 10.296 126.311 10.404C126.095 10.728 125.915 11.664 125.771 13.212C125.483 16.38 125.555 20.844 126.095 23.58C126.203 24.264 126.347 24.84 126.527 25.236C126.599 25.416 126.671 25.596 126.779 25.704C126.959 25.776 127.175 25.812 127.463 25.812C127.643 25.812 127.823 25.812 127.967 25.776C128.075 25.668 128.147 25.488 128.219 25.236C128.363 24.84 128.471 24.336 128.579 23.652C128.975 21.204 128.867 17.244 128.579 14.22C128.399 12.708 128.219 11.7 128.039 11.232ZM134.676 8.496L137.232 8.388H137.376L140.508 8.208C141.084 8.172 141.588 8.604 141.624 9.18C141.66 9.756 141.228 10.26 140.652 10.296C139.788 10.332 139.032 10.404 138.384 10.44C137.988 17.604 137.88 23.004 138.132 26.676C138.168 27.252 137.736 27.756 137.16 27.792C136.584 27.828 136.08 27.396 136.044 26.82C135.792 23.04 135.864 17.64 136.26 10.548C135.72 10.548 135.216 10.548 134.748 10.584C134.172 10.584 133.668 10.152 133.668 9.576C133.668 9 134.1 8.496 134.676 8.496ZM157.459 8.388C157.567 12.456 157.603 18.288 157.603 25.884C157.603 26.46 157.135 26.928 156.559 26.928C155.983 26.928 155.515 26.46 155.515 25.884C155.515 18.288 155.479 12.456 155.371 8.46C155.371 7.884 155.803 7.38 156.379 7.38C156.955 7.38 157.459 7.812 157.459 8.388ZM148.315 13.86H148.603C149.035 13.824 149.395 13.788 149.647 13.824C151.627 13.824 152.887 14.508 153.499 17.1C153.931 19.116 153.895 21.996 153.355 24.12C152.671 26.604 151.771 27.18 149.863 27.468C148.999 27.576 148.099 27.576 147.487 27.18C146.659 26.64 146.479 25.416 146.443 24.12V21.564C146.407 20.808 146.299 18.9 146.083 15.84C145.867 12.816 145.759 10.476 145.759 8.856C145.759 8.28 146.227 7.812 146.803 7.812C147.379 7.812 147.847 8.28 147.847 8.856C147.847 10.26 147.919 11.952 148.027 13.896C148.099 13.86 148.207 13.86 148.315 13.86ZM148.531 21.492V24.012C148.567 24.552 148.603 24.948 148.675 25.272C148.675 25.308 148.675 25.38 148.711 25.416C148.747 25.452 148.783 25.452 148.819 25.452C149.251 25.452 150.367 25.344 150.655 25.092C150.907 24.912 151.123 24.408 151.339 23.58C151.771 21.816 151.843 19.296 151.447 17.568C151.123 16.02 150.727 15.912 149.611 15.912C149.395 15.876 149.107 15.876 148.747 15.912H148.495C148.351 15.948 148.243 15.948 148.171 15.948C148.351 18.612 148.495 20.448 148.531 21.492ZM165.715 1.872C164.887 7.704 164.707 13.968 165.103 20.664C165.139 21.24 164.707 21.744 164.131 21.78C163.555 21.816 163.051 21.384 163.015 20.808C162.619 13.932 162.799 7.524 163.627 1.584C163.735 1.008 164.239 0.611999 164.815 0.684C165.391 0.755999 165.751 1.296 165.715 1.872ZM164.815 23.796L165.571 24.552C165.607 24.624 165.679 24.696 165.715 24.732C165.751 24.768 165.751 24.84 165.787 24.876C165.787 24.984 165.931 25.416 165.787 25.704C165.607 26.136 165.283 26.352 164.815 26.352C164.635 26.352 164.491 26.352 164.239 26.244L163.519 26.028C162.943 25.884 162.655 25.308 162.799 24.732C162.835 24.552 162.943 24.444 163.051 24.336C163.087 23.868 163.519 23.472 164.095 23.472C164.383 23.472 164.635 23.58 164.815 23.796Z" fill="#424F6B"/>
</svg>
