<svg width="490" height="57" viewBox="0 0 490 57" fill="none" xmlns="http://www.w3.org/2000/svg">
<path d="M12.384 5.328L13.104 3.456C13.752 1.728 13.824 1.152 14.904 0.719999C15.984 0.287996 17.208 0.791998 17.64 1.872C17.856 2.376 17.856 2.952 17.64 3.456L16.92 5.184C16.272 6.696 16.128 6.984 15.84 8.064C15.696 8.64 15.624 9.216 15.552 9.72C15.48 10.512 15.408 12.24 15.336 15.048C15.264 20.016 14.688 23.544 12.024 26.136C11.736 26.424 11.376 26.712 11.016 26.928C11.448 27.072 11.88 27.288 12.24 27.504C15.336 29.232 17.424 33.336 18.36 39.888C18.576 41.4 18.864 43.848 19.152 47.232C19.368 50.112 19.584 51.984 19.728 52.848C19.944 54 19.152 55.08 18 55.296C16.848 55.512 15.768 54.72 15.552 53.568C15.408 52.56 15.192 50.544 14.976 47.52C14.472 41.472 14.04 33.192 10.224 31.104C9.288 30.6 7.56 30.312 5.112 30.312L5.328 51.696C5.328 52.848 4.392 53.784 3.24 53.784C2.088 53.784 1.152 52.848 1.152 51.696C1.152 48.888 1.08 43.272 1.008 34.992C0.936 26.712 0.864 20.376 0.936 15.912C0.936 14.976 1.08 12.816 1.296 9.36C1.44 6.768 1.44 4.68 1.368 3.168C1.296 2.016 2.16 1.008 3.312 0.935997C4.464 0.863997 5.472 1.728 5.544 2.88C5.616 4.608 5.616 6.84 5.472 9.576C4.968 16.488 5.04 18.36 5.04 24.624C8.712 24.336 10.08 22.752 10.728 19.944C10.944 18.864 11.088 17.208 11.16 14.976C11.232 11.88 11.304 10.008 11.376 9.288C11.592 7.848 12.024 6.192 12.384 5.328ZM34.4346 16.128H35.5866C36.3066 16.128 36.8826 16.416 37.3146 16.992C37.5306 17.064 38.8266 17.784 39.3306 18.288C39.7626 18.72 40.2666 19.584 40.7706 20.88C41.8506 23.544 42.5706 30.96 42.6426 37.944C42.7146 41.904 42.4986 45.216 42.0666 47.952C41.7066 51.048 40.8426 53.64 39.3306 54.864C37.6026 56.232 33.9306 55.944 32.2746 55.008C30.4746 54.072 29.4666 51.336 28.8906 47.952C27.8106 41.904 27.5946 32.76 28.1706 26.064C28.5306 22.248 29.1786 19.728 29.9706 18.504C30.8346 17.208 31.8426 16.416 32.9946 16.2C33.3546 16.128 33.8586 16.128 34.4346 16.128ZM36.8826 22.464L36.4506 21.312L36.1626 21.168L34.9386 20.376C34.8666 20.376 34.8666 20.376 34.7946 20.304H33.8586C33.7866 20.376 33.6426 20.592 33.4266 20.808C32.9946 21.456 32.6346 23.328 32.3466 26.424C31.7706 32.76 31.9146 41.688 32.9946 47.16C33.2106 48.528 33.4986 49.68 33.8586 50.472C34.0026 50.832 34.1466 51.192 34.3626 51.408C34.7226 51.552 35.1546 51.624 35.7306 51.624C36.0906 51.624 36.4506 51.624 36.7386 51.552C36.9546 51.336 37.0986 50.976 37.2426 50.472C37.5306 49.68 37.7466 48.672 37.9626 47.304C38.7546 42.408 38.5386 34.488 37.9626 28.44C37.6026 25.416 37.2426 23.4 36.8826 22.464ZM67.4364 25.344L67.5804 25.704C67.5804 25.56 67.5084 25.344 67.4364 25.056V20.304C67.3644 18.936 67.2924 17.28 66.2124 16.416C65.9964 16.2 65.7084 16.056 65.3484 15.984C65.1324 15.912 64.9164 15.84 64.6284 15.84H63.5484C61.6044 15.84 59.1564 16.128 57.3564 16.776C54.4764 17.856 53.8284 19.944 54.1164 22.536L54.2604 23.76C54.3324 24.12 54.3324 24.48 54.3324 24.696C54.3324 25.488 54.4044 26.928 54.4764 29.016C54.5484 31.104 54.6204 33.192 54.6204 35.136C54.6204 37.008 54.5484 38.808 54.3324 40.464C53.6844 46.368 51.7404 49.464 48.6444 49.752C47.4924 49.824 46.7004 50.904 46.7724 52.056C46.8444 53.208 47.9244 54 49.0764 53.928C54.4044 53.424 57.5004 49.104 58.4364 40.968C58.7964 37.44 58.8684 33.12 58.6524 28.8L58.5084 24.696C58.5084 24.336 58.5084 23.832 58.4364 23.256C58.3644 23.184 58.3644 23.04 58.3644 22.896V22.464C58.2924 22.392 58.2924 22.248 58.2924 22.104C58.2204 21.6 58.2204 21.168 58.2924 20.952C58.4364 20.88 58.6524 20.736 58.8684 20.664C60.0204 20.16 61.8204 20.016 63.2604 20.016V25.704C63.2604 25.776 63.2604 25.776 63.3324 25.848V28.008C63.4044 34.92 63.4044 36.936 63.2604 44.424C63.1884 48.168 63.1164 50.976 63.1164 52.92C63.1164 54.072 64.0524 55.008 65.2044 55.008C66.3564 55.008 67.2924 54.072 67.2924 52.92C67.2924 50.976 67.3644 48.168 67.4364 44.424C67.5804 37.008 67.5804 34.92 67.5084 28.008C67.5084 26.712 67.5084 25.848 67.4364 25.344ZM63.2604 25.632L63.1164 24.984C63.0444 25.128 63.1164 25.344 63.2604 25.632ZM84.4791 32.112L81.8871 41.472C80.8791 45 80.0151 47.808 79.2951 49.896C78.9351 51.12 78.5751 52.056 78.3591 52.704C78.2151 53.136 78.0711 53.496 77.9271 53.712C77.8551 53.928 77.7111 54.072 77.6391 54.144C77.0631 55.008 75.8391 55.512 74.6871 54.936C73.5351 54.36 73.2471 53.28 73.4631 52.128C73.4631 51.768 73.5351 51.336 73.6071 51.264V50.976C73.5351 49.824 73.6071 48.168 73.6791 46.008C73.7511 43.92 73.8231 42.336 73.7511 41.328C73.6791 37.152 73.2471 29.448 72.4551 18.216C72.3831 17.064 73.2471 16.056 74.3991 15.984C75.5511 15.912 76.5591 16.776 76.6311 17.928C77.3511 28.8 77.7831 36.216 77.9271 40.176C80.0151 32.904 81.2391 28.368 81.6711 26.424L81.8151 25.704L82.0311 24.336C82.1031 23.76 82.2471 23.256 82.3191 22.824C82.5351 21.888 82.6791 21.096 82.7511 20.52C82.8231 20.16 82.8951 19.944 82.9671 19.728C82.9671 19.44 83.0391 19.224 83.2551 18.936C83.3271 18.72 83.4711 18.576 83.6871 18.432C84.7671 17.496 86.4231 17.856 87.2871 19.368C87.5031 19.728 87.6471 20.16 87.7911 20.664C88.0791 22.104 88.2951 23.976 88.3671 25.128C88.3671 25.776 88.3671 26.28 88.4391 26.784V27.576C88.7271 31.392 88.7991 36.576 88.7991 39.744V46.224C88.7271 48.96 88.7271 50.976 88.7271 52.272C88.7271 53.424 87.7911 54.36 86.6391 54.36C85.4871 54.36 84.5511 53.424 84.5511 52.272C84.5511 40.176 84.5511 33.48 84.4791 32.112ZM105.929 33.768H106.505C106.433 29.016 106.289 23.4 106.073 16.92C106.073 15.768 106.937 14.76 108.089 14.76C109.241 14.76 110.249 15.624 110.249 16.776C110.681 31.104 110.897 42.912 110.897 52.272C110.897 53.424 109.961 54.36 108.809 54.36C107.657 54.36 106.721 53.424 106.721 52.272C106.721 47.736 106.649 42.984 106.577 37.872C106.505 37.944 106.433 37.944 106.361 37.944C99.3774 38.592 95.4174 35.352 93.9054 29.808C92.8254 25.848 92.9694 18.504 93.2574 14.976C93.2574 13.824 94.2654 12.96 95.4174 12.96C96.5694 12.96 97.4334 13.968 97.4334 15.12C97.1454 19.224 97.0734 25.344 97.9374 28.728C99.0174 32.4 101.105 34.272 105.929 33.768ZM121.456 36.36C121.672 41.184 122.248 44.856 123.04 47.232C123.904 50.04 126.28 50.904 127.792 49.104C128.584 48.24 129.88 48.096 130.744 48.888C131.608 49.68 131.752 50.976 130.96 51.84C128.944 54.144 126.208 54.792 123.832 53.856C119.224 52.128 118.504 47.664 117.784 41.832C117.064 36.072 116.848 29.232 117.928 24.408C118.576 21.312 119.584 19.08 121.096 17.856C123.184 16.128 125.488 16.416 127.432 17.928C130.24 20.16 132.4 25.488 132.472 29.736C132.544 32.4 131.896 34.344 130.456 35.568C129.808 36.144 128.656 36.288 127.72 36.36C126.928 36.432 125.92 36.432 124.696 36.432C123.76 36.432 122.68 36.432 121.456 36.36ZM127.936 32.112C128.224 31.68 128.368 30.96 128.296 29.88C128.224 26.64 126.496 22.536 124.84 21.168C124.552 20.952 124.336 20.88 124.192 20.88C124.12 20.808 123.976 20.88 123.832 21.024C122.32 22.248 121.384 26.712 121.384 32.184C122.68 32.256 123.76 32.256 124.696 32.256C125.776 32.256 126.712 32.256 127.36 32.184C127.576 32.184 127.792 32.184 127.936 32.112ZM149.162 26.496C149.162 26.136 149.162 25.704 149.234 25.2C149.306 24.696 149.306 24.408 149.306 24.264C149.306 24.048 149.306 23.256 149.162 22.824C149.09 22.608 148.946 22.32 148.874 21.888C148.082 19.872 146.066 19.296 145.202 20.736C143.474 23.688 143.689 28.152 143.762 31.896C143.834 33.84 143.834 35.208 143.834 35.856C143.618 39.528 143.618 44.424 144.41 47.304C144.698 48.456 145.85 50.04 147.002 50.832C147.866 51.408 148.226 51.336 148.802 50.4C149.666 48.888 149.45 46.368 149.234 43.992C149.162 42.768 149.09 41.976 149.09 41.544C149.09 40.392 149.954 39.384 151.106 39.384C152.258 39.384 153.266 40.248 153.266 41.4C153.266 41.76 153.338 42.552 153.41 43.704C153.482 44.856 153.554 45.792 153.554 46.512C153.626 51.624 151.754 54.792 148.658 55.296C145.994 55.8 143.618 53.856 142.034 51.624C141.242 50.544 140.666 49.464 140.378 48.456C139.442 44.928 139.442 38.952 139.658 35.856C139.658 35.208 139.658 33.912 139.586 31.968C139.514 30.096 139.514 28.584 139.586 27.504C139.658 23.688 140.378 20.664 141.602 18.576C143.042 16.056 145.562 15.264 148.082 15.912C150.17 16.56 152.114 18.36 152.762 20.592C153.626 23.112 153.626 24.768 153.338 26.784C153.266 27.936 152.258 28.8 151.106 28.728C149.954 28.656 149.09 27.648 149.162 26.496ZM161.039 16.992L166.151 16.776H166.439L172.703 16.416C173.855 16.344 174.863 17.208 174.935 18.36C175.007 19.512 174.143 20.52 172.991 20.592C171.263 20.664 169.751 20.808 168.455 20.88C167.663 35.208 167.447 46.008 167.951 53.352C168.023 54.504 167.159 55.512 166.007 55.584C164.855 55.656 163.847 54.792 163.775 53.64C163.271 46.08 163.415 35.28 164.207 21.096C163.127 21.096 162.119 21.096 161.183 21.168C160.031 21.168 159.023 20.304 159.023 19.152C159.023 18 159.887 16.992 161.039 16.992ZM181.91 48.456V36.936C181.91 35.064 181.91 33.84 181.838 33.336C181.55 30.168 181.406 24.912 181.406 17.496C181.406 16.344 182.342 15.408 183.494 15.408C183.854 15.408 184.214 15.48 184.502 15.696C185.006 15.336 185.51 15.264 186.086 15.408C193.862 16.848 196.382 23.184 193.43 30.456C192.926 31.68 192.35 32.616 191.702 33.408C195.95 35.352 196.742 39.384 196.67 43.92C196.454 48.528 195.446 50.472 193.358 52.2C191.27 54 188.39 55.296 186.014 54.936C184.286 54.72 183.062 53.784 182.342 52.128C182.198 51.912 182.126 51.552 182.054 51.192C182.054 50.976 182.054 50.76 181.982 50.472C181.982 49.968 181.982 49.32 181.91 48.456ZM186.734 31.896L187.598 31.608C188.39 30.96 189.038 30.024 189.542 28.872C191.63 23.688 190.19 20.592 185.582 19.512C185.582 25.056 185.726 29.304 185.942 32.256C186.158 32.184 186.446 32.04 186.734 31.896ZM188.822 36.936H188.678C188.606 36.936 188.534 36.936 188.318 37.008C188.102 37.08 187.958 37.08 187.886 37.08C187.382 37.152 186.878 37.152 186.446 37.08C186.374 37.008 186.23 37.008 186.086 36.936V48.384C186.158 49.176 186.158 49.752 186.158 50.184V50.328L186.374 50.544C186.446 50.688 186.59 50.76 186.662 50.832C187.526 50.904 189.254 50.256 190.55 49.104C191.198 48.6 191.558 48.168 191.774 47.808C192.566 46.008 192.638 41.76 191.99 39.672C191.486 38.16 190.478 37.224 188.822 36.936ZM211.341 16.128H212.493C213.213 16.128 213.789 16.416 214.221 16.992C214.437 17.064 215.733 17.784 216.237 18.288C216.669 18.72 217.173 19.584 217.677 20.88C218.757 23.544 219.477 30.96 219.549 37.944C219.621 41.904 219.405 45.216 218.973 47.952C218.613 51.048 217.749 53.64 216.237 54.864C214.509 56.232 210.837 55.944 209.181 55.008C207.381 54.072 206.373 51.336 205.797 47.952C204.717 41.904 204.501 32.76 205.077 26.064C205.437 22.248 206.085 19.728 206.877 18.504C207.741 17.208 208.749 16.416 209.901 16.2C210.261 16.128 210.765 16.128 211.341 16.128ZM213.789 22.464L213.357 21.312L213.069 21.168L211.845 20.376C211.773 20.376 211.773 20.376 211.701 20.304H210.765C210.693 20.376 210.549 20.592 210.333 20.808C209.901 21.456 209.541 23.328 209.253 26.424C208.677 32.76 208.821 41.688 209.901 47.16C210.117 48.528 210.405 49.68 210.765 50.472C210.909 50.832 211.053 51.192 211.269 51.408C211.629 51.552 212.061 51.624 212.637 51.624C212.997 51.624 213.357 51.624 213.645 51.552C213.861 51.336 214.005 50.976 214.149 50.472C214.437 49.68 214.653 48.672 214.869 47.304C215.661 42.408 215.445 34.488 214.869 28.44C214.509 25.416 214.149 23.4 213.789 22.464ZM271.937 33.768H272.513C272.441 29.016 272.297 23.4 272.081 16.92C272.081 15.768 272.945 14.76 274.097 14.76C275.249 14.76 276.257 15.624 276.257 16.776C276.689 31.104 276.905 42.912 276.905 52.272C276.905 53.424 275.969 54.36 274.817 54.36C273.665 54.36 272.729 53.424 272.729 52.272C272.729 47.736 272.657 42.984 272.585 37.872C272.513 37.944 272.441 37.944 272.369 37.944C265.385 38.592 261.425 35.352 259.913 29.808C258.833 25.848 258.977 18.504 259.265 14.976C259.265 13.824 260.273 12.96 261.425 12.96C262.577 12.96 263.441 13.968 263.441 15.12C263.153 19.224 263.081 25.344 263.945 28.728C265.025 32.4 267.113 34.272 271.937 33.768ZM287.463 36.36C287.679 41.184 288.255 44.856 289.047 47.232C289.911 50.04 292.287 50.904 293.799 49.104C294.591 48.24 295.887 48.096 296.751 48.888C297.615 49.68 297.759 50.976 296.967 51.84C294.951 54.144 292.215 54.792 289.839 53.856C285.231 52.128 284.511 47.664 283.791 41.832C283.071 36.072 282.855 29.232 283.935 24.408C284.583 21.312 285.591 19.08 287.103 17.856C289.191 16.128 291.495 16.416 293.439 17.928C296.247 20.16 298.407 25.488 298.479 29.736C298.551 32.4 297.903 34.344 296.463 35.568C295.815 36.144 294.663 36.288 293.727 36.36C292.935 36.432 291.927 36.432 290.703 36.432C289.767 36.432 288.687 36.432 287.463 36.36ZM293.943 32.112C294.231 31.68 294.375 30.96 294.303 29.88C294.231 26.64 292.503 22.536 290.847 21.168C290.559 20.952 290.343 20.88 290.199 20.88C290.127 20.808 289.983 20.88 289.839 21.024C288.327 22.248 287.391 26.712 287.391 32.184C288.687 32.256 289.767 32.256 290.703 32.256C291.783 32.256 292.719 32.256 293.367 32.184C293.583 32.184 293.799 32.184 293.943 32.112ZM323.233 25.344L323.377 25.704C323.377 25.56 323.305 25.344 323.233 25.056V20.304C323.161 18.936 323.089 17.28 322.009 16.416C321.793 16.2 321.505 16.056 321.145 15.984C320.929 15.912 320.713 15.84 320.425 15.84H319.345C317.401 15.84 314.953 16.128 313.153 16.776C310.273 17.856 309.625 19.944 309.913 22.536L310.057 23.76C310.129 24.12 310.129 24.48 310.129 24.696C310.129 25.488 310.201 26.928 310.273 29.016C310.345 31.104 310.417 33.192 310.417 35.136C310.417 37.008 310.345 38.808 310.129 40.464C309.481 46.368 307.537 49.464 304.441 49.752C303.289 49.824 302.497 50.904 302.569 52.056C302.641 53.208 303.721 54 304.873 53.928C310.201 53.424 313.297 49.104 314.233 40.968C314.593 37.44 314.665 33.12 314.449 28.8L314.305 24.696C314.305 24.336 314.305 23.832 314.233 23.256C314.161 23.184 314.161 23.04 314.161 22.896V22.464C314.089 22.392 314.089 22.248 314.089 22.104C314.017 21.6 314.017 21.168 314.089 20.952C314.233 20.88 314.449 20.736 314.665 20.664C315.817 20.16 317.617 20.016 319.057 20.016V25.704C319.057 25.776 319.057 25.776 319.129 25.848V28.008C319.201 34.92 319.201 36.936 319.057 44.424C318.985 48.168 318.913 50.976 318.913 52.92C318.913 54.072 319.849 55.008 321.001 55.008C322.153 55.008 323.089 54.072 323.089 52.92C323.089 50.976 323.161 48.168 323.233 44.424C323.377 37.008 323.377 34.92 323.305 28.008C323.305 26.712 323.305 25.848 323.233 25.344ZM319.057 25.632L318.913 24.984C318.841 25.128 318.913 25.344 319.057 25.632ZM338.044 16.128H339.196C339.916 16.128 340.492 16.416 340.924 16.992C341.14 17.064 342.436 17.784 342.94 18.288C343.372 18.72 343.876 19.584 344.38 20.88C345.46 23.544 346.18 30.96 346.252 37.944C346.324 41.904 346.108 45.216 345.676 47.952C345.316 51.048 344.452 53.64 342.94 54.864C341.212 56.232 337.54 55.944 335.884 55.008C334.084 54.072 333.076 51.336 332.5 47.952C331.42 41.904 331.204 32.76 331.78 26.064C332.14 22.248 332.788 19.728 333.58 18.504C334.444 17.208 335.452 16.416 336.604 16.2C336.964 16.128 337.468 16.128 338.044 16.128ZM340.492 22.464L340.06 21.312L339.772 21.168L338.548 20.376C338.476 20.376 338.476 20.376 338.404 20.304H337.468C337.396 20.376 337.252 20.592 337.036 20.808C336.604 21.456 336.244 23.328 335.956 26.424C335.38 32.76 335.524 41.688 336.604 47.16C336.82 48.528 337.108 49.68 337.468 50.472C337.612 50.832 337.756 51.192 337.972 51.408C338.332 51.552 338.764 51.624 339.34 51.624C339.7 51.624 340.06 51.624 340.348 51.552C340.564 51.336 340.708 50.976 340.852 50.472C341.14 49.68 341.356 48.672 341.572 47.304C342.364 42.408 342.148 34.488 341.572 28.44C341.212 25.416 340.852 23.4 340.492 22.464ZM353.262 48.456V36.936C353.262 35.064 353.262 33.84 353.19 33.336C352.902 30.168 352.758 24.912 352.758 17.496C352.758 16.344 353.694 15.408 354.846 15.408C355.206 15.408 355.566 15.48 355.854 15.696C356.358 15.336 356.862 15.264 357.438 15.408C365.214 16.848 367.734 23.184 364.782 30.456C364.278 31.68 363.702 32.616 363.054 33.408C367.302 35.352 368.094 39.384 368.022 43.92C367.806 48.528 366.798 50.472 364.71 52.2C362.622 54 359.742 55.296 357.366 54.936C355.638 54.72 354.414 53.784 353.694 52.128C353.55 51.912 353.478 51.552 353.406 51.192C353.406 50.976 353.406 50.76 353.334 50.472C353.334 49.968 353.334 49.32 353.262 48.456ZM358.086 31.896L358.95 31.608C359.742 30.96 360.39 30.024 360.894 28.872C362.982 23.688 361.542 20.592 356.934 19.512C356.934 25.056 357.078 29.304 357.294 32.256C357.51 32.184 357.798 32.04 358.086 31.896ZM360.174 36.936H360.03C359.958 36.936 359.886 36.936 359.67 37.008C359.454 37.08 359.31 37.08 359.238 37.08C358.734 37.152 358.23 37.152 357.798 37.08C357.726 37.008 357.582 37.008 357.438 36.936V48.384C357.51 49.176 357.51 49.752 357.51 50.184V50.328L357.726 50.544C357.798 50.688 357.942 50.76 358.014 50.832C358.878 50.904 360.606 50.256 361.902 49.104C362.55 48.6 362.91 48.168 363.126 47.808C363.918 46.008 363.99 41.76 363.342 39.672C362.838 38.16 361.83 37.224 360.174 36.936ZM378.588 36.36C378.804 41.184 379.38 44.856 380.172 47.232C381.036 50.04 383.412 50.904 384.924 49.104C385.716 48.24 387.012 48.096 387.876 48.888C388.74 49.68 388.884 50.976 388.092 51.84C386.076 54.144 383.34 54.792 380.964 53.856C376.356 52.128 375.636 47.664 374.916 41.832C374.196 36.072 373.98 29.232 375.06 24.408C375.708 21.312 376.716 19.08 378.228 17.856C380.316 16.128 382.62 16.416 384.564 17.928C387.372 20.16 389.532 25.488 389.604 29.736C389.676 32.4 389.028 34.344 387.588 35.568C386.94 36.144 385.788 36.288 384.852 36.36C384.06 36.432 383.052 36.432 381.828 36.432C380.892 36.432 379.812 36.432 378.588 36.36ZM385.068 32.112C385.356 31.68 385.5 30.96 385.428 29.88C385.356 26.64 383.628 22.536 381.972 21.168C381.684 20.952 381.468 20.88 381.324 20.88C381.252 20.808 381.108 20.88 380.964 21.024C379.452 22.248 378.516 26.712 378.516 32.184C379.812 32.256 380.892 32.256 381.828 32.256C382.908 32.256 383.844 32.256 384.492 32.184C384.708 32.184 384.924 32.184 385.068 32.112ZM412.054 48.096V52.2C412.054 53.352 411.19 54.36 410.038 54.36C408.886 54.36 407.878 53.496 407.878 52.344V48.168C407.806 44.712 407.806 40.176 404.854 37.872C404.206 37.368 403.198 37.008 401.83 36.936L401.11 37.152C400.894 37.224 400.75 37.224 400.534 37.224C400.606 42.696 400.534 47.736 400.39 52.344C400.39 53.496 399.382 54.36 398.23 54.36C397.078 54.36 396.214 53.352 396.214 52.2C396.502 43.848 396.43 32.256 395.998 17.352C395.998 16.2 396.862 15.192 398.014 15.192C399.166 15.192 400.174 16.056 400.174 17.208C400.39 23.328 400.462 28.224 400.534 32.04C401.47 31.464 402.406 30.672 403.342 29.664C406.51 26.136 407.662 22.104 406.87 17.64C406.654 16.488 407.446 15.48 408.598 15.192C409.75 14.976 410.758 15.768 411.046 16.92C412.126 22.68 410.614 27.864 406.51 32.4C406.078 32.904 405.718 33.264 405.502 33.48C406.15 33.768 406.798 34.128 407.446 34.56C409.822 36.36 411.262 39.312 411.766 43.416C411.91 44.64 411.982 46.224 412.054 48.096ZM427.572 18.504C430.38 19.08 431.532 20.88 430.956 22.68C430.74 23.328 430.308 23.904 429.66 24.336C427.068 25.848 424.044 23.832 423.684 19.872C423.612 18.72 424.404 17.64 425.556 17.568C426.42 17.496 427.068 17.784 427.572 18.504ZM428.508 45.936L428.796 46.08C428.868 46.152 428.94 46.224 429.228 46.296C429.372 46.368 429.516 46.368 429.732 46.44C431.46 47.232 432.684 48.888 431.82 51.552C430.956 54.072 428.94 54.864 427.284 54.216C426.636 53.928 426.06 53.352 425.628 52.56C425.124 51.408 424.836 49.68 424.836 47.304C424.836 46.152 425.772 45.216 426.924 45.216C427.572 45.216 428.076 45.432 428.508 45.936ZM477.436 30.24H477.508C479.164 30.528 481.684 30.816 483.412 30.744H483.988C484.132 30.312 484.276 29.736 484.348 29.016C484.564 27.576 484.708 25.704 484.78 23.328C484.852 20.304 484.78 16.92 484.636 13.104C484.564 12.384 484.492 11.304 484.276 9.864C484.06 8.208 483.916 7.056 483.844 6.264C483.844 6.192 483.844 6.048 483.772 5.832C483.556 4.896 483.484 4.464 483.556 3.672C483.916 1.872 485.932 1.44 487.156 2.376C487.516 2.664 487.732 3.024 487.948 3.456L488.164 4.176C488.236 4.536 488.38 5.112 488.452 5.76C488.668 7.704 488.884 10.512 488.956 13.68V16.056C489.244 19.656 489.244 25.776 489.1 34.488C488.956 42.912 488.956 48.96 489.028 52.632C489.028 53.784 488.164 54.792 487.012 54.792C485.86 54.792 484.852 53.928 484.852 52.776C484.708 49.032 484.708 43.056 484.924 34.848C484.564 34.92 484.06 34.92 483.484 34.92C481.468 34.992 478.588 34.704 476.644 34.344C475.492 34.056 474.34 33.768 473.692 32.832C473.116 32.04 472.972 31.104 473.188 30.024L473.404 29.376V29.232C473.476 27.288 473.548 23.328 473.62 17.496C473.692 11.664 473.836 7.2 473.98 3.96C474.052 2.808 475.06 1.944 476.212 2.016C477.364 2.088 478.228 3.096 478.156 4.248C477.94 7.416 477.868 11.88 477.796 17.712C477.724 23.544 477.652 27.432 477.58 29.376C477.58 29.592 477.508 29.88 477.436 30.24Z" fill="#424F6B"/>
</svg>
