<svg width="218" height="36" viewBox="0 0 218 36" fill="none" xmlns="http://www.w3.org/2000/svg">
<path d="M1.7 25.704V13.392C1.628 11.7 1.52 9.36 1.412 7.38C1.376 7.128 1.376 6.696 1.34 6.084C1.304 4.824 1.268 4.536 1.16 3.636C1.088 3.168 1.016 2.772 0.908 2.376C0.764 1.836 1.088 1.26 1.664 1.116C2.204 0.971998 2.78 1.296 2.924 1.872C3.176 2.736 3.32 3.96 3.356 4.572C3.392 5.184 3.5 6.912 3.5 7.236C3.608 8.928 3.68 10.764 3.716 12.708C5.336 12.636 6.812 12.528 8.144 12.348C7.964 9.252 7.748 5.688 7.46 1.62C7.424 1.044 7.856 0.539999 8.432 0.503998C9.008 0.467998 9.512 0.899999 9.548 1.476C10.232 11.016 10.592 19.044 10.592 25.56C10.592 26.136 10.124 26.604 9.548 26.604C8.972 26.604 8.504 26.136 8.504 25.56C8.504 22.068 8.432 18.36 8.252 14.436C6.884 14.616 5.372 14.724 3.752 14.796C3.788 16.164 3.788 19.8 3.788 25.704C3.788 26.28 3.32 26.748 2.744 26.748C2.168 26.748 1.7 26.28 1.7 25.704ZM21.7919 10.656L21.9359 10.944C21.9719 11.052 21.9719 11.16 22.0079 11.268C22.0439 11.448 22.0439 11.664 22.0799 11.952L22.1879 14.076V15.3C22.3319 16.704 22.3319 16.704 22.3679 18.756C22.3679 20.808 22.4039 22.428 22.5839 23.616C22.6559 24.156 22.7279 24.552 22.7999 24.768H22.8359C23.5559 25.164 23.7359 25.2 23.8439 25.776C23.9519 26.352 23.5559 26.892 22.9799 27C22.6919 27.036 22.4399 27 22.1879 26.82C22.1519 26.784 22.1519 26.784 22.1159 26.784L22.0079 26.712C21.9719 26.676 21.8999 26.64 21.8279 26.604C21.1079 26.172 20.8919 25.704 20.7119 25.092L20.4959 25.524C19.5239 27.252 17.9399 27.9 16.2119 26.604C14.1959 25.164 13.5119 20.052 14.1239 15.732C14.4839 13.284 15.1679 11.448 16.1759 10.26C17.4719 8.712 19.1639 8.316 21.2879 9.324C21.7559 9.576 21.9719 10.188 21.7919 10.656ZM20.0999 15.444L20.0279 14.94C19.8479 13.86 19.7759 13.032 19.7399 12.492C19.7399 12.456 19.7399 12.348 19.7039 12.168C19.6679 11.7 19.5959 11.34 19.7399 10.944C18.9839 10.728 18.2999 10.944 17.7599 11.592C16.2839 13.428 15.5999 18.072 16.2119 21.708C16.4639 23.472 16.8959 24.552 17.4359 24.948C18.0119 25.38 18.2279 25.272 18.6599 24.552C19.7039 22.644 20.0639 18.576 20.0999 15.444ZM32.2018 13.248C32.2018 13.068 32.2018 12.852 32.2378 12.6C32.2738 12.348 32.2738 12.204 32.2738 12.132C32.2738 12.024 32.2738 11.628 32.2018 11.412C32.1658 11.304 32.0938 11.16 32.0578 10.944C31.6618 9.936 30.6538 9.648 30.2218 10.368C29.3578 11.844 29.4658 14.076 29.5018 15.948C29.5378 16.92 29.5378 17.604 29.5378 17.928C29.4298 19.764 29.4298 22.212 29.8258 23.652C29.9698 24.228 30.5458 25.02 31.1218 25.416C31.5538 25.704 31.7338 25.668 32.0218 25.2C32.4538 24.444 32.3458 23.184 32.2378 21.996C32.2018 21.384 32.1658 20.988 32.1658 20.772C32.1658 20.196 32.5978 19.692 33.1738 19.692C33.7498 19.692 34.2538 20.124 34.2538 20.7C34.2538 20.88 34.2898 21.276 34.3258 21.852C34.3618 22.428 34.3978 22.896 34.3978 23.256C34.4338 25.812 33.4978 27.396 31.9498 27.648C30.6178 27.9 29.4298 26.928 28.6378 25.812C28.2418 25.272 27.9538 24.732 27.8098 24.228C27.3418 22.464 27.3418 19.476 27.4498 17.928C27.4498 17.604 27.4498 16.956 27.4138 15.984C27.3778 15.048 27.3778 14.292 27.4138 13.752C27.4498 11.844 27.8098 10.332 28.4218 9.288C29.1418 8.028 30.4018 7.632 31.6618 7.956C32.7058 8.28 33.6778 9.18 34.0018 10.296C34.4338 11.556 34.4338 12.384 34.2898 13.392C34.2538 13.968 33.7498 14.4 33.1738 14.364C32.5978 14.328 32.1658 13.824 32.2018 13.248ZM38.1407 8.496L40.6967 8.388H40.8407L43.9727 8.208C44.5487 8.172 45.0527 8.604 45.0887 9.18C45.1247 9.756 44.6927 10.26 44.1167 10.296C43.2527 10.332 42.4967 10.404 41.8487 10.44C41.4527 17.604 41.3447 23.004 41.5967 26.676C41.6327 27.252 41.2007 27.756 40.6247 27.792C40.0487 27.828 39.5447 27.396 39.5087 26.82C39.2567 23.04 39.3287 17.64 39.7247 10.548C39.1847 10.548 38.6807 10.548 38.2127 10.584C37.6367 10.584 37.1327 10.152 37.1327 9.576C37.1327 9 37.5647 8.496 38.1407 8.496ZM49.6202 19.44L49.4042 16.776C49.2962 15.588 49.1522 13.356 49.1162 11.736C49.0802 10.944 49.0802 10.152 49.0802 9.36C49.0802 8.784 49.5482 8.316 50.1242 8.316C50.7002 8.316 51.1682 8.784 51.1682 9.36V9.54L51.2042 9.432C51.6002 8.676 52.1402 8.208 52.7522 8.028C53.2202 7.848 53.7602 7.776 54.2282 7.884C54.6962 8.028 54.9122 8.1 55.3442 8.28L55.6682 8.46C56.2082 8.712 56.4242 9.288 56.2442 9.756C57.6842 12.528 57.5042 16.92 56.9282 23.508C56.7482 25.668 55.5242 27.072 54.3722 27.324C53.6882 27.432 53.0042 27.18 52.3562 26.64C52.2842 26.604 52.2122 26.532 52.1762 26.46C52.2842 29.34 52.2842 31.932 52.1042 34.2C52.0682 34.776 51.5642 35.208 50.9882 35.172C50.4122 35.136 49.9802 34.632 50.0162 34.056C50.2682 30.996 50.1962 26.928 49.8002 21.816C49.7642 21.42 49.7282 20.628 49.6202 19.44ZM54.0122 25.236C54.0482 25.236 54.1202 25.164 54.2282 25.056C54.5882 24.588 54.8042 23.976 54.8402 23.292C55.4162 16.92 55.5962 12.168 54.1202 10.296C54.0482 10.188 54.0122 10.116 53.9762 10.008C53.5802 9.864 53.3282 9.9 53.0402 10.44C52.8602 10.836 52.6802 11.34 52.5362 12.024C51.9602 14.724 52.0682 19.152 52.7522 22.356C53.0762 23.868 53.4002 24.768 53.7242 25.056C53.8322 25.164 53.9402 25.236 54.0122 25.236ZM64.6978 8.064H65.2738C65.6338 8.064 65.9218 8.208 66.1378 8.496C66.2458 8.532 66.8938 8.892 67.1458 9.144C67.3618 9.36 67.6138 9.792 67.8658 10.44C68.4058 11.772 68.7658 15.48 68.8018 18.972C68.8378 20.952 68.7298 22.608 68.5138 23.976C68.3338 25.524 67.9018 26.82 67.1458 27.432C66.2818 28.116 64.4458 27.972 63.6178 27.504C62.7178 27.036 62.2138 25.668 61.9258 23.976C61.3858 20.952 61.2778 16.38 61.5658 13.032C61.7458 11.124 62.0698 9.864 62.4658 9.252C62.8978 8.604 63.4018 8.208 63.9778 8.1C64.1578 8.064 64.4098 8.064 64.6978 8.064ZM65.9218 11.232L65.7058 10.656L65.5618 10.584L64.9498 10.188C64.9138 10.188 64.9138 10.188 64.8778 10.152H64.4098C64.3738 10.188 64.3018 10.296 64.1938 10.404C63.9778 10.728 63.7978 11.664 63.6538 13.212C63.3658 16.38 63.4378 20.844 63.9778 23.58C64.0858 24.264 64.2298 24.84 64.4098 25.236C64.4818 25.416 64.5538 25.596 64.6618 25.704C64.8418 25.776 65.0578 25.812 65.3457 25.812C65.5258 25.812 65.7058 25.812 65.8498 25.776C65.9578 25.668 66.0298 25.488 66.1018 25.236C66.2458 24.84 66.3538 24.336 66.4618 23.652C66.8578 21.204 66.7498 17.244 66.4618 14.22C66.2818 12.708 66.1018 11.7 65.9218 11.232ZM73.6387 1.512C73.9627 3.204 74.8267 4.032 75.5107 4.068C75.8347 4.104 76.1947 3.96 76.5547 3.636C76.9147 3.312 77.2027 2.736 77.4547 1.872C77.5987 1.296 78.1747 0.971998 78.7507 1.116C79.2907 1.26 79.6147 1.836 79.4707 2.376C78.7867 4.86 77.2027 6.336 75.2947 6.156C73.4587 5.976 72.0547 4.248 71.6227 1.944C71.4787 1.368 71.8747 0.827998 72.4507 0.684C72.9907 0.575999 73.5307 0.971998 73.6387 1.512ZM77.2747 16.056L75.9787 20.736C75.4747 22.5 75.0427 23.904 74.6827 24.948C74.5027 25.56 74.3227 26.028 74.2147 26.352C74.1427 26.568 74.0707 26.748 73.9987 26.856C73.9627 26.964 73.8907 27.036 73.8547 27.072C73.5667 27.504 72.9547 27.756 72.3787 27.468C71.8027 27.18 71.6587 26.64 71.7667 26.064C71.7667 25.884 71.8027 25.668 71.8387 25.632V25.488C71.8027 24.912 71.8387 24.084 71.8747 23.004C71.9107 21.96 71.9467 21.168 71.9107 20.664C71.8747 18.576 71.6587 14.724 71.2627 9.108C71.2267 8.532 71.6587 8.028 72.2347 7.992C72.8107 7.956 73.3147 8.388 73.3507 8.964C73.7107 14.4 73.9267 18.108 73.9987 20.088C75.0427 16.452 75.6547 14.184 75.8707 13.212L75.9427 12.852L76.0507 12.168C76.0867 11.88 76.1587 11.628 76.1947 11.412C76.3027 10.944 76.3747 10.548 76.4107 10.26C76.4467 10.08 76.4827 9.972 76.5187 9.864C76.5187 9.72 76.5547 9.612 76.6627 9.468C76.6987 9.36 76.7707 9.288 76.8787 9.216C77.4187 8.748 78.2467 8.928 78.6787 9.684C78.7867 9.864 78.8587 10.08 78.9307 10.332C79.0747 11.052 79.1827 11.988 79.2187 12.564C79.2187 12.888 79.2187 13.14 79.2547 13.392V13.788C79.3987 15.696 79.4347 18.288 79.4347 19.872V23.112C79.3987 24.48 79.3987 25.488 79.3987 26.136C79.3987 26.712 78.9307 27.18 78.3547 27.18C77.7787 27.18 77.3107 26.712 77.3107 26.136C77.3107 20.088 77.3107 16.74 77.2747 16.056ZM90.7342 24.048V26.1C90.7342 26.676 90.3022 27.18 89.7262 27.18C89.1502 27.18 88.6462 26.748 88.6462 26.172V24.084C88.6102 22.356 88.6102 20.088 87.1342 18.936C86.8102 18.684 86.3062 18.504 85.6222 18.468L85.2622 18.576C85.1542 18.612 85.0822 18.612 84.9742 18.612C85.0102 21.348 84.9742 23.868 84.9022 26.172C84.9022 26.748 84.3982 27.18 83.8222 27.18C83.2462 27.18 82.8142 26.676 82.8142 26.1C82.9582 21.924 82.9222 16.128 82.7062 8.676C82.7062 8.1 83.1382 7.596 83.7142 7.596C84.2902 7.596 84.7942 8.028 84.7942 8.604C84.9022 11.664 84.9382 14.112 84.9742 16.02C85.4422 15.732 85.9102 15.336 86.3782 14.832C87.9622 13.068 88.5382 11.052 88.1422 8.82C88.0342 8.244 88.4302 7.74 89.0062 7.596C89.5822 7.488 90.0862 7.884 90.2302 8.46C90.7702 11.34 90.0142 13.932 87.9622 16.2C87.7462 16.452 87.5662 16.632 87.4582 16.74C87.7822 16.884 88.1062 17.064 88.4302 17.28C89.6182 18.18 90.3382 19.656 90.5902 21.708C90.6622 22.32 90.6982 23.112 90.7342 24.048ZM101.913 10.656L102.057 10.944C102.093 11.052 102.093 11.16 102.129 11.268C102.165 11.448 102.165 11.664 102.201 11.952L102.309 14.076V15.3C102.453 16.704 102.453 16.704 102.489 18.756C102.489 20.808 102.525 22.428 102.705 23.616C102.777 24.156 102.849 24.552 102.921 24.768H102.957C103.677 25.164 103.857 25.2 103.965 25.776C104.073 26.352 103.677 26.892 103.101 27C102.813 27.036 102.561 27 102.309 26.82C102.273 26.784 102.273 26.784 102.237 26.784L102.129 26.712C102.093 26.676 102.021 26.64 101.949 26.604C101.229 26.172 101.013 25.704 100.833 25.092L100.617 25.524C99.645 27.252 98.061 27.9 96.333 26.604C94.317 25.164 93.633 20.052 94.245 15.732C94.605 13.284 95.289 11.448 96.297 10.26C97.593 8.712 99.285 8.316 101.409 9.324C101.877 9.576 102.093 10.188 101.913 10.656ZM100.221 15.444L100.149 14.94C99.969 13.86 99.897 13.032 99.861 12.492C99.861 12.456 99.861 12.348 99.825 12.168C99.789 11.7 99.717 11.34 99.861 10.944C99.105 10.728 98.421 10.944 97.881 11.592C96.405 13.428 95.721 18.072 96.333 21.708C96.585 23.472 97.017 24.552 97.557 24.948C98.133 25.38 98.349 25.272 98.781 24.552C99.825 22.644 100.185 18.576 100.221 15.444ZM126.12 19.44L125.904 16.776C125.796 15.588 125.652 13.356 125.616 11.736C125.58 10.944 125.58 10.152 125.58 9.36C125.58 8.784 126.048 8.316 126.624 8.316C127.2 8.316 127.668 8.784 127.668 9.36V9.54L127.704 9.432C128.1 8.676 128.64 8.208 129.252 8.028C129.72 7.848 130.26 7.776 130.728 7.884C131.196 8.028 131.412 8.1 131.844 8.28L132.168 8.46C132.708 8.712 132.924 9.288 132.744 9.756C134.184 12.528 134.004 16.92 133.428 23.508C133.248 25.668 132.024 27.072 130.872 27.324C130.188 27.432 129.504 27.18 128.856 26.64C128.784 26.604 128.712 26.532 128.676 26.46C128.784 29.34 128.784 31.932 128.604 34.2C128.568 34.776 128.064 35.208 127.488 35.172C126.912 35.136 126.48 34.632 126.516 34.056C126.768 30.996 126.696 26.928 126.3 21.816C126.264 21.42 126.228 20.628 126.12 19.44ZM130.512 25.236C130.548 25.236 130.62 25.164 130.728 25.056C131.088 24.588 131.304 23.976 131.34 23.292C131.916 16.92 132.096 12.168 130.62 10.296C130.548 10.188 130.512 10.116 130.476 10.008C130.08 9.864 129.828 9.9 129.54 10.44C129.36 10.836 129.18 11.34 129.036 12.024C128.46 14.724 128.568 19.152 129.252 22.356C129.576 23.868 129.9 24.768 130.224 25.056C130.332 25.164 130.44 25.236 130.512 25.236ZM145.05 10.656L145.194 10.944C145.23 11.052 145.23 11.16 145.266 11.268C145.302 11.448 145.302 11.664 145.338 11.952L145.446 14.076V15.3C145.59 16.704 145.59 16.704 145.626 18.756C145.626 20.808 145.662 22.428 145.842 23.616C145.914 24.156 145.986 24.552 146.058 24.768H146.094C146.814 25.164 146.994 25.2 147.102 25.776C147.21 26.352 146.814 26.892 146.238 27C145.95 27.036 145.698 27 145.446 26.82C145.41 26.784 145.41 26.784 145.374 26.784L145.266 26.712C145.23 26.676 145.158 26.64 145.086 26.604C144.366 26.172 144.15 25.704 143.97 25.092L143.754 25.524C142.782 27.252 141.198 27.9 139.47 26.604C137.454 25.164 136.77 20.052 137.382 15.732C137.742 13.284 138.426 11.448 139.434 10.26C140.73 8.712 142.422 8.316 144.546 9.324C145.014 9.576 145.23 10.188 145.05 10.656ZM143.358 15.444L143.286 14.94C143.106 13.86 143.034 13.032 142.998 12.492C142.998 12.456 142.998 12.348 142.962 12.168C142.926 11.7 142.854 11.34 142.998 10.944C142.242 10.728 141.558 10.944 141.018 11.592C139.542 13.428 138.858 18.072 139.47 21.708C139.722 23.472 140.154 24.552 140.694 24.948C141.27 25.38 141.486 25.272 141.918 24.552C142.962 22.644 143.322 18.576 143.358 15.444ZM156.9 17.64L156.54 18.144C156.936 18.828 157.332 20.088 157.332 21.42C157.332 23.112 156.792 25.488 155.532 26.604C154.596 27.432 153.552 27.72 152.364 27.468C151.212 27.216 150.276 26.352 150.024 25.02C149.988 24.732 149.952 24.408 149.952 24.048C149.952 23.724 149.952 23.364 149.988 22.968C150.024 22.572 150.024 22.356 150.024 22.248C150.024 21.672 150.492 21.204 151.068 21.204C151.644 21.204 152.112 21.672 152.112 22.248C152.112 22.464 152.112 22.896 152.076 23.58C152.04 24.264 152.04 24.624 152.112 24.66C152.256 25.524 153.3 25.776 154.164 25.02C154.74 24.48 155.244 22.716 155.244 21.42C155.244 20.952 155.172 20.448 155.028 19.908C154.92 19.584 154.848 19.368 154.74 19.188C154.668 19.224 154.632 19.224 154.596 19.224C154.056 19.368 153.516 19.44 153.084 18.828C152.652 18.216 152.976 17.208 153.876 16.956C154.056 16.92 154.308 16.884 154.56 16.92H154.812C154.92 16.848 154.992 16.74 155.1 16.56C155.208 16.38 155.316 15.984 155.388 15.408C155.568 14.148 155.604 12.456 155.46 11.196C155.28 10.044 155.172 9.576 153.912 9.396C153.66 9.36 153.444 9.396 153.3 9.576C152.868 10.152 152.652 11.376 152.616 13.14V14.544C152.544 14.724 152.544 14.904 152.544 15.012C152.508 15.588 152.004 16.02 151.428 15.984C150.852 15.948 150.42 15.444 150.456 14.868C150.492 14.724 150.492 14.544 150.492 14.364C150.492 14.184 150.492 13.968 150.528 13.716V13.068C150.564 11.088 150.816 9.396 151.68 8.28C152.976 6.66 155.928 7.164 156.972 9C157.44 9.864 157.656 11.592 157.656 13.32C157.62 15.048 157.368 16.776 156.9 17.64ZM161.147 10.224V9.792C161.183 9.72 161.183 9.648 161.183 9.612C161.183 9.468 161.219 9.36 161.327 9.216C161.507 8.856 161.831 8.676 162.227 8.676C162.587 8.676 162.911 8.82 163.199 9.144C163.307 9.252 163.415 9.432 163.523 9.648C163.703 9.972 163.883 10.404 164.063 10.944C164.387 11.844 164.747 13.104 165.143 14.724L166.619 20.988C167.267 17.316 167.915 14.292 168.527 11.952L168.959 10.332L169.139 9.684C169.175 9.504 169.247 9.396 169.283 9.288C169.319 9.252 169.355 9.18 169.391 9.108C169.571 8.856 169.823 8.712 170.219 8.712C170.759 8.712 171.155 8.964 171.371 9.468C171.443 9.648 171.479 9.9 171.479 10.152V10.548C171.479 10.584 171.479 10.62 171.443 10.62V10.656C171.803 12.42 172.055 14.22 172.199 16.128L172.343 17.748C172.379 18.504 172.415 19.044 172.451 19.44C172.595 21.78 172.703 23.94 172.775 25.992C172.775 26.568 172.343 27.072 171.767 27.072C171.191 27.072 170.687 26.64 170.687 26.064C170.615 24.048 170.507 21.888 170.363 19.584C170.327 19.188 170.291 18.648 170.255 17.892L170.111 16.272C170.075 15.768 170.039 15.264 169.967 14.76C169.571 16.596 169.103 18.972 168.599 21.816C168.563 21.852 168.527 22.14 168.455 22.716C168.275 23.868 168.131 24.984 167.879 25.74C167.735 26.208 167.555 26.892 166.871 27.144C166.259 27.324 165.647 27.036 165.395 26.424C165.251 26.028 165.323 25.416 165.359 25.236V25.164C165.287 24.588 165.251 24.228 165.215 24.12C165.179 24.084 165.179 24.048 165.143 23.94L165.071 23.544L164.927 23.004C163.739 17.928 163.163 15.372 163.127 15.3C163.019 21.78 162.947 25.488 162.947 26.424C162.947 27 162.479 27.468 161.903 27.468C161.327 27.468 160.859 27 160.859 26.424C160.859 24.732 160.895 22.356 160.967 19.224C161.039 16.128 161.075 14.184 161.075 13.428C161.075 11.7 161.111 10.836 161.147 10.224ZM181.232 16.056L179.936 20.736C179.432 22.5 179 23.904 178.64 24.948C178.46 25.56 178.28 26.028 178.172 26.352C178.1 26.568 178.028 26.748 177.956 26.856C177.92 26.964 177.848 27.036 177.812 27.072C177.524 27.504 176.912 27.756 176.336 27.468C175.76 27.18 175.616 26.64 175.724 26.064C175.724 25.884 175.76 25.668 175.796 25.632V25.488C175.76 24.912 175.796 24.084 175.832 23.004C175.868 21.96 175.904 21.168 175.868 20.664C175.832 18.576 175.616 14.724 175.22 9.108C175.184 8.532 175.616 8.028 176.192 7.992C176.768 7.956 177.272 8.388 177.308 8.964C177.668 14.4 177.884 18.108 177.956 20.088C179 16.452 179.612 14.184 179.828 13.212L179.9 12.852L180.008 12.168C180.044 11.88 180.116 11.628 180.152 11.412C180.26 10.944 180.332 10.548 180.368 10.26C180.404 10.08 180.44 9.972 180.476 9.864C180.476 9.72 180.512 9.612 180.62 9.468C180.656 9.36 180.728 9.288 180.836 9.216C181.376 8.748 182.204 8.928 182.636 9.684C182.744 9.864 182.816 10.08 182.888 10.332C183.032 11.052 183.14 11.988 183.176 12.564C183.176 12.888 183.176 13.14 183.212 13.392V13.788C183.356 15.696 183.392 18.288 183.392 19.872V23.112C183.356 24.48 183.356 25.488 183.356 26.136C183.356 26.712 182.888 27.18 182.312 27.18C181.736 27.18 181.268 26.712 181.268 26.136C181.268 20.088 181.268 16.74 181.232 16.056ZM187.421 16.416L187.097 8.892C187.097 8.316 187.529 7.812 188.105 7.812C188.681 7.812 189.185 8.244 189.185 8.82C189.221 10.116 189.329 12.636 189.509 16.344C190.085 16.38 191.165 16.344 192.785 16.308C192.749 13.536 192.857 11.016 193.037 8.676C193.073 8.1 193.577 7.668 194.153 7.704C194.729 7.74 195.161 8.244 195.125 8.82C194.765 13.248 194.801 18.828 195.197 25.56C195.233 26.136 194.801 26.64 194.225 26.676C193.649 26.712 193.145 26.28 193.109 25.704C192.929 22.968 192.857 20.52 192.821 18.396C191.273 18.432 190.229 18.468 189.617 18.468C189.725 21.384 189.797 23.904 189.797 25.956C189.797 26.532 189.329 27 188.753 27C188.177 27 187.709 26.532 187.709 25.956C187.709 23.724 187.601 20.556 187.421 16.416ZM206.433 24.048V26.1C206.433 26.676 206.001 27.18 205.425 27.18C204.849 27.18 204.345 26.748 204.345 26.172V24.084C204.309 22.356 204.309 20.088 202.833 18.936C202.509 18.684 202.005 18.504 201.321 18.468L200.961 18.576C200.853 18.612 200.781 18.612 200.673 18.612C200.709 21.348 200.673 23.868 200.601 26.172C200.601 26.748 200.097 27.18 199.521 27.18C198.945 27.18 198.513 26.676 198.513 26.1C198.657 21.924 198.621 16.128 198.405 8.676C198.405 8.1 198.837 7.596 199.413 7.596C199.989 7.596 200.493 8.028 200.493 8.604C200.601 11.664 200.637 14.112 200.673 16.02C201.141 15.732 201.609 15.336 202.077 14.832C203.661 13.068 204.237 11.052 203.841 8.82C203.733 8.244 204.129 7.74 204.705 7.596C205.281 7.488 205.785 7.884 205.929 8.46C206.469 11.34 205.713 13.932 203.661 16.2C203.445 16.452 203.265 16.632 203.157 16.74C203.481 16.884 203.805 17.064 204.129 17.28C205.317 18.18 206.037 19.656 206.289 21.708C206.361 22.32 206.397 23.112 206.433 24.048ZM214.876 16.056L213.58 20.736C213.076 22.5 212.644 23.904 212.284 24.948C212.104 25.56 211.924 26.028 211.816 26.352C211.744 26.568 211.672 26.748 211.6 26.856C211.564 26.964 211.492 27.036 211.456 27.072C211.168 27.504 210.556 27.756 209.98 27.468C209.404 27.18 209.26 26.64 209.368 26.064C209.368 25.884 209.404 25.668 209.44 25.632V25.488C209.404 24.912 209.44 24.084 209.476 23.004C209.512 21.96 209.548 21.168 209.512 20.664C209.476 18.576 209.26 14.724 208.864 9.108C208.828 8.532 209.26 8.028 209.836 7.992C210.412 7.956 210.916 8.388 210.952 8.964C211.312 14.4 211.528 18.108 211.6 20.088C212.644 16.452 213.256 14.184 213.472 13.212L213.544 12.852L213.652 12.168C213.688 11.88 213.76 11.628 213.796 11.412C213.904 10.944 213.976 10.548 214.012 10.26C214.048 10.08 214.084 9.972 214.12 9.864C214.12 9.72 214.156 9.612 214.264 9.468C214.3 9.36 214.372 9.288 214.48 9.216C215.02 8.748 215.848 8.928 216.28 9.684C216.388 9.864 216.46 10.08 216.532 10.332C216.676 11.052 216.784 11.988 216.82 12.564C216.82 12.888 216.82 13.14 216.856 13.392V13.788C217 15.696 217.036 18.288 217.036 19.872V23.112C217 24.48 217 25.488 217 26.136C217 26.712 216.532 27.18 215.956 27.18C215.38 27.18 214.912 26.712 214.912 26.136C214.912 20.088 214.912 16.74 214.876 16.056Z" fill="#424F6B"/>
</svg>
