<svg width="151" height="35" viewBox="0 0 151 35" fill="none" xmlns="http://www.w3.org/2000/svg">
<path d="M0.18 3.932V2.132C0.216 1.88 0.216 1.664 0.216 1.556V1.16C0.252 1.124 0.252 1.088 0.252 1.052C0.288 0.907999 0.36 0.763999 0.504 0.583999L0.936 0.331998C0.972 0.331998 1.044 0.331998 1.08 0.295998H1.188C1.26 0.259999 1.332 0.259999 1.44 0.259999C1.584 0.259999 1.8 0.259999 2.088 0.223999C3.24 0.115999 4.968 0.079999 6.084 0.079999H6.84C7.164 0.079999 7.38 0.115999 7.524 0.188C8.784 0.655998 9.288 1.808 9.288 3.788V4.832C9.252 5.192 9.252 5.48 9.288 5.66C9.432 7.82 9.576 11.168 9.684 15.704C9.72 16.892 9.72 17.972 9.684 18.872C9.648 20.744 9.684 23.156 10.008 24.92C10.116 25.496 9.72 26.036 9.144 26.144C8.568 26.252 8.028 25.856 7.92 25.28C7.632 23.408 7.56 20.708 7.596 18.836C7.632 17.9 7.632 16.892 7.596 15.776C7.488 11.276 7.344 7.928 7.2 5.804C7.164 5.552 7.164 5.228 7.2 4.796V3.788C7.2 3.104 7.128 2.636 7.02 2.348C6.984 2.276 6.912 2.204 6.84 2.168H6.084C5.076 2.168 3.384 2.204 2.268 2.312V3.968C2.232 5.516 2.232 6.488 2.232 6.92V12.968C2.196 15.668 2.196 17.684 2.196 19.016C2.196 19.484 2.196 20.096 2.16 20.888C2.088 22.508 2.088 23.588 2.232 24.704C2.268 25.28 1.908 25.784 1.332 25.856C0.756 25.928 0.252 25.568 0.144 24.992C0 23.804 0 22.472 0.072 20.78C0.108 19.952 0.108 19.34 0.108 19.016C0.108 17.684 0.108 15.668 0.144 12.968V6.92C0.144 6.452 0.144 5.48 0.18 3.932ZM14.5499 18.44L14.3339 15.776C14.2259 14.588 14.0819 12.356 14.0459 10.736C14.0099 9.944 14.0099 9.152 14.0099 8.36C14.0099 7.784 14.4779 7.316 15.0539 7.316C15.6299 7.316 16.0979 7.784 16.0979 8.36V8.54L16.1339 8.432C16.5299 7.676 17.0699 7.208 17.6819 7.028C18.1499 6.848 18.6899 6.776 19.1579 6.884C19.6259 7.028 19.8419 7.1 20.2739 7.28L20.5979 7.46C21.1379 7.712 21.3539 8.288 21.1739 8.756C22.6139 11.528 22.4339 15.92 21.8579 22.508C21.6779 24.668 20.4539 26.072 19.3019 26.324C18.6179 26.432 17.9339 26.18 17.2859 25.64C17.2139 25.604 17.1419 25.532 17.1059 25.46C17.2139 28.34 17.2139 30.932 17.0339 33.2C16.9979 33.776 16.4939 34.208 15.9179 34.172C15.3419 34.136 14.9099 33.632 14.9459 33.056C15.1979 29.996 15.1259 25.928 14.7299 20.816C14.6939 20.42 14.6579 19.628 14.5499 18.44ZM18.9419 24.236C18.9779 24.236 19.0499 24.164 19.1579 24.056C19.5179 23.588 19.7339 22.976 19.7699 22.292C20.3459 15.92 20.5259 11.168 19.0499 9.296C18.9779 9.188 18.9419 9.116 18.9059 9.008C18.5099 8.864 18.2579 8.9 17.9699 9.44C17.7899 9.836 17.6099 10.34 17.4659 11.024C16.8899 13.724 16.9979 18.152 17.6819 21.356C18.0059 22.868 18.3299 23.768 18.6539 24.056C18.7619 24.164 18.8699 24.236 18.9419 24.236ZM27.5754 17.18C27.6834 19.592 27.9714 21.428 28.3674 22.616C28.7994 24.02 29.9874 24.452 30.7434 23.552C31.1394 23.12 31.7874 23.048 32.2194 23.444C32.6514 23.84 32.7234 24.488 32.3274 24.92C31.3194 26.072 29.9514 26.396 28.7634 25.928C26.4594 25.064 26.0994 22.832 25.7394 19.916C25.3794 17.036 25.2714 13.616 25.8114 11.204C26.1354 9.656 26.6394 8.54 27.3954 7.928C28.4394 7.064 29.5914 7.208 30.5634 7.964C31.9674 9.08 33.0474 11.744 33.0834 13.868C33.1194 15.2 32.7954 16.172 32.0754 16.784C31.7514 17.072 31.1754 17.144 30.7074 17.18C30.3114 17.216 29.8074 17.216 29.1954 17.216C28.7274 17.216 28.1874 17.216 27.5754 17.18ZM30.8154 15.056C30.9594 14.84 31.0314 14.48 30.9954 13.94C30.9594 12.32 30.0954 10.268 29.2674 9.584C29.1234 9.476 29.0154 9.44 28.9434 9.44C28.9074 9.404 28.8354 9.44 28.7634 9.512C28.0074 10.124 27.5394 12.356 27.5394 15.092C28.1874 15.128 28.7274 15.128 29.1954 15.128C29.7354 15.128 30.2034 15.128 30.5274 15.092C30.6354 15.092 30.7434 15.092 30.8154 15.056ZM40.9964 7.568H41.0684C41.1044 7.532 41.1764 7.532 41.2124 7.496C41.2484 7.496 41.3204 7.496 41.3924 7.46C41.5004 7.424 41.6444 7.424 41.8244 7.388C42.4364 7.28 43.5164 7.172 44.1284 7.136C44.3084 7.1 44.4524 7.1 44.5604 7.1H44.8844C44.9204 7.1 44.9924 7.1 45.0284 7.136C45.2084 7.172 45.3884 7.28 45.4964 7.388C45.8204 7.712 46.0004 8.108 46.0364 8.648C46.0724 8.756 46.0724 8.9 46.0724 9.08V9.332C46.2524 11.168 46.3244 13.796 46.3244 17.144C46.3244 17.864 46.3244 19.016 46.2884 20.636C46.2524 22.256 46.2164 23.48 46.2164 24.308C46.3964 24.308 46.5044 24.308 46.6124 24.344H46.9724C47.0444 24.38 47.1164 24.38 47.1524 24.38C47.3324 24.416 47.4764 24.488 47.6204 24.596C48.2324 25.064 48.4484 26 48.5564 26.9C48.5924 27.152 48.5924 27.476 48.6284 27.944C48.6284 28.304 48.6284 28.52 48.6644 28.592C48.7004 29.168 48.3404 29.672 47.7644 29.744C47.1884 29.816 46.6844 29.456 46.5764 28.88C46.5764 28.592 46.5044 27.548 46.4684 27.116L46.3604 26.396C46.1444 26.396 45.8564 26.396 45.5324 26.36C44.7764 26.324 43.8044 26.324 42.6524 26.324H39.7364C39.3404 26.324 39.0164 26.324 38.7644 26.36H38.4764C38.4044 26.396 38.3324 26.432 38.2604 26.504C38.1164 26.9 38.1884 27.872 38.2964 28.916C38.3324 29.348 38.3684 29.672 38.3684 29.852C38.3684 30.428 37.9004 30.896 37.3244 30.896C36.7484 30.896 36.2804 30.428 36.2804 29.852C36.2804 29.6 36.1724 28.376 36.1364 27.944C35.9924 25.676 36.4604 25.028 37.4324 24.56C37.5044 24.416 37.5764 24.308 37.6844 24.236C39.1244 23.048 39.9524 20.168 40.2044 15.668C40.2404 14.588 40.2764 13.004 40.2404 10.916C40.2404 10.124 40.2404 9.584 40.2764 9.26C40.2764 8.72 40.3124 8.252 40.6364 7.856C40.7444 7.712 40.8884 7.604 40.9964 7.568ZM40.3484 24.236H44.1284C44.1284 23.408 44.1644 22.22 44.2004 20.6C44.2364 18.98 44.2364 17.828 44.2364 17.108C44.2364 13.832 44.1644 11.312 43.9844 9.548V9.26L43.2284 9.332L42.3644 9.44C42.3284 9.692 42.3284 10.196 42.3284 10.88C42.3644 13.004 42.3284 14.66 42.2924 15.776C42.1124 19.592 41.4644 22.4 40.3484 24.236ZM57.0026 12.248C57.0026 12.068 57.0026 11.852 57.0386 11.6C57.0746 11.348 57.0746 11.204 57.0746 11.132C57.0746 11.024 57.0746 10.628 57.0026 10.412C56.9666 10.304 56.8946 10.16 56.8586 9.944C56.4626 8.936 55.4546 8.648 55.0226 9.368C54.1586 10.844 54.2666 13.076 54.3026 14.948C54.3386 15.92 54.3386 16.604 54.3386 16.928C54.2306 18.764 54.2306 21.212 54.6266 22.652C54.7706 23.228 55.3466 24.02 55.9226 24.416C56.3546 24.704 56.5346 24.668 56.8226 24.2C57.2546 23.444 57.1466 22.184 57.0386 20.996C57.0026 20.384 56.9666 19.988 56.9666 19.772C56.9666 19.196 57.3986 18.692 57.9746 18.692C58.5506 18.692 59.0546 19.124 59.0546 19.7C59.0546 19.88 59.0906 20.276 59.1266 20.852C59.1626 21.428 59.1986 21.896 59.1986 22.256C59.2346 24.812 58.2986 26.396 56.7506 26.648C55.4186 26.9 54.2306 25.928 53.4386 24.812C53.0426 24.272 52.7546 23.732 52.6106 23.228C52.1426 21.464 52.1426 18.476 52.2506 16.928C52.2506 16.604 52.2506 15.956 52.2146 14.984C52.1786 14.048 52.1786 13.292 52.2146 12.752C52.2506 10.844 52.6106 9.332 53.2226 8.288C53.9426 7.028 55.2026 6.632 56.4626 6.956C57.5066 7.28 58.4786 8.18 58.8026 9.296C59.2346 10.556 59.2346 11.384 59.0906 12.392C59.0546 12.968 58.5506 13.4 57.9746 13.364C57.3986 13.328 56.9666 12.824 57.0026 12.248ZM62.9415 7.496L65.4975 7.388H65.6415L68.7735 7.208C69.3495 7.172 69.8535 7.604 69.8895 8.18C69.9255 8.756 69.4935 9.26 68.9175 9.296C68.0535 9.332 67.2975 9.404 66.6495 9.44C66.2535 16.604 66.1455 22.004 66.3975 25.676C66.4335 26.252 66.0015 26.756 65.4255 26.792C64.8495 26.828 64.3455 26.396 64.3095 25.82C64.0575 22.04 64.1295 16.64 64.5255 9.548C63.9855 9.548 63.4815 9.548 63.0135 9.584C62.4375 9.584 61.9335 9.152 61.9335 8.576C61.9335 8 62.3655 7.496 62.9415 7.496ZM81.081 9.656L81.225 9.944C81.261 10.052 81.261 10.16 81.297 10.268C81.333 10.448 81.333 10.664 81.369 10.952L81.477 13.076V14.3C81.621 15.704 81.621 15.704 81.657 17.756C81.657 19.808 81.693 21.428 81.873 22.616C81.945 23.156 82.017 23.552 82.089 23.768H82.125C82.845 24.164 83.025 24.2 83.133 24.776C83.241 25.352 82.845 25.892 82.269 26C81.981 26.036 81.729 26 81.477 25.82C81.441 25.784 81.441 25.784 81.405 25.784L81.297 25.712C81.261 25.676 81.189 25.64 81.117 25.604C80.397 25.172 80.181 24.704 80.001 24.092L79.785 24.524C78.813 26.252 77.229 26.9 75.501 25.604C73.485 24.164 72.801 19.052 73.413 14.732C73.773 12.284 74.457 10.448 75.465 9.26C76.761 7.712 78.453 7.316 80.577 8.324C81.045 8.576 81.261 9.188 81.081 9.656ZM79.389 14.444L79.317 13.94C79.137 12.86 79.065 12.032 79.029 11.492C79.029 11.456 79.029 11.348 78.993 11.168C78.957 10.7 78.885 10.34 79.029 9.944C78.273 9.728 77.589 9.944 77.049 10.592C75.573 12.428 74.889 17.072 75.501 20.708C75.753 22.472 76.185 23.552 76.725 23.948C77.301 24.38 77.517 24.272 77.949 23.552C78.993 21.644 79.353 17.576 79.389 14.444ZM86.6309 23.228V17.468C86.6309 16.532 86.6309 15.92 86.5949 15.668C86.4509 14.084 86.3789 11.456 86.3789 7.748C86.3789 7.172 86.8469 6.704 87.4229 6.704C87.6029 6.704 87.7829 6.74 87.9269 6.848C88.1789 6.668 88.4309 6.632 88.7189 6.704C92.6069 7.424 93.8669 10.592 92.3909 14.228C92.1389 14.84 91.8509 15.308 91.5269 15.704C93.6509 16.676 94.0469 18.692 94.0109 20.96C93.9029 23.264 93.3989 24.236 92.3549 25.1C91.3109 26 89.8709 26.648 88.6829 26.468C87.8189 26.36 87.2069 25.892 86.8469 25.064C86.7749 24.956 86.7389 24.776 86.7029 24.596C86.7029 24.488 86.7029 24.38 86.6669 24.236C86.6669 23.984 86.6669 23.66 86.6309 23.228ZM89.0429 14.948L89.4749 14.804C89.8709 14.48 90.1949 14.012 90.4469 13.436C91.4909 10.844 90.7709 9.296 88.4669 8.756C88.4669 11.528 88.5389 13.652 88.6469 15.128C88.7549 15.092 88.8989 15.02 89.0429 14.948ZM90.0869 17.468H90.0149C89.9789 17.468 89.9429 17.468 89.8349 17.504C89.7269 17.54 89.6549 17.54 89.6189 17.54C89.3669 17.576 89.1149 17.576 88.8989 17.54C88.8629 17.504 88.7909 17.504 88.7189 17.468V23.192C88.7549 23.588 88.7549 23.876 88.7549 24.092V24.164L88.8629 24.272C88.8989 24.344 88.9709 24.38 89.0069 24.416C89.4389 24.452 90.3029 24.128 90.9509 23.552C91.2749 23.3 91.4549 23.084 91.5629 22.904C91.9589 22.004 91.9949 19.88 91.6709 18.836C91.4189 18.08 90.9149 17.612 90.0869 17.468ZM100.698 12.86H100.986C101.418 12.824 101.778 12.788 102.03 12.824C104.01 12.824 105.27 13.508 105.882 16.1C106.314 18.116 106.278 20.996 105.738 23.12C105.054 25.604 104.154 26.18 102.246 26.468C101.382 26.576 100.482 26.576 99.8702 26.18C99.0422 25.64 98.8622 24.416 98.8262 23.12V20.564C98.7902 19.808 98.6822 17.9 98.4662 14.84C98.2502 11.816 98.1422 9.476 98.1422 7.856C98.1422 7.28 98.6102 6.812 99.1862 6.812C99.7622 6.812 100.23 7.28 100.23 7.856C100.23 9.26 100.302 10.952 100.41 12.896C100.482 12.86 100.59 12.86 100.698 12.86ZM100.914 20.492V23.012C100.95 23.552 100.986 23.948 101.058 24.272C101.058 24.308 101.058 24.38 101.094 24.416C101.13 24.452 101.166 24.452 101.202 24.452C101.634 24.452 102.75 24.344 103.038 24.092C103.29 23.912 103.506 23.408 103.722 22.58C104.154 20.816 104.226 18.296 103.83 16.568C103.506 15.02 103.11 14.912 101.994 14.912C101.778 14.876 101.49 14.876 101.13 14.912H100.878C100.734 14.948 100.626 14.948 100.554 14.948C100.734 17.612 100.878 19.448 100.914 20.492ZM109.91 7.496L112.466 7.388H112.61L115.742 7.208C116.318 7.172 116.822 7.604 116.858 8.18C116.894 8.756 116.462 9.26 115.886 9.296C115.022 9.332 114.266 9.404 113.618 9.44C113.222 16.604 113.114 22.004 113.366 25.676C113.402 26.252 112.97 26.756 112.394 26.792C111.818 26.828 111.314 26.396 111.278 25.82C111.026 22.04 111.098 16.64 111.494 9.548C110.954 9.548 110.45 9.548 109.982 9.584C109.406 9.584 108.902 9.152 108.902 8.576C108.902 8 109.334 7.496 109.91 7.496ZM122.146 17.18C122.254 19.592 122.542 21.428 122.938 22.616C123.37 24.02 124.558 24.452 125.314 23.552C125.71 23.12 126.358 23.048 126.79 23.444C127.222 23.84 127.294 24.488 126.898 24.92C125.89 26.072 124.522 26.396 123.334 25.928C121.03 25.064 120.67 22.832 120.31 19.916C119.95 17.036 119.842 13.616 120.382 11.204C120.706 9.656 121.21 8.54 121.966 7.928C123.01 7.064 124.162 7.208 125.134 7.964C126.538 9.08 127.618 11.744 127.654 13.868C127.69 15.2 127.366 16.172 126.646 16.784C126.322 17.072 125.746 17.144 125.278 17.18C124.882 17.216 124.378 17.216 123.766 17.216C123.298 17.216 122.758 17.216 122.146 17.18ZM125.386 15.056C125.53 14.84 125.602 14.48 125.566 13.94C125.53 12.32 124.666 10.268 123.838 9.584C123.694 9.476 123.586 9.44 123.514 9.44C123.478 9.404 123.406 9.44 123.334 9.512C122.578 10.124 122.11 12.356 122.11 15.092C122.758 15.128 123.298 15.128 123.766 15.128C124.306 15.128 124.774 15.128 125.098 15.092C125.206 15.092 125.314 15.092 125.386 15.056ZM135.999 12.248C135.999 12.068 135.999 11.852 136.035 11.6C136.071 11.348 136.071 11.204 136.071 11.132C136.071 11.024 136.071 10.628 135.999 10.412C135.963 10.304 135.891 10.16 135.855 9.944C135.459 8.936 134.451 8.648 134.019 9.368C133.155 10.844 133.263 13.076 133.299 14.948C133.335 15.92 133.335 16.604 133.335 16.928C133.227 18.764 133.227 21.212 133.623 22.652C133.767 23.228 134.343 24.02 134.919 24.416C135.351 24.704 135.531 24.668 135.819 24.2C136.251 23.444 136.143 22.184 136.035 20.996C135.999 20.384 135.963 19.988 135.963 19.772C135.963 19.196 136.395 18.692 136.971 18.692C137.547 18.692 138.051 19.124 138.051 19.7C138.051 19.88 138.087 20.276 138.123 20.852C138.159 21.428 138.195 21.896 138.195 22.256C138.231 24.812 137.295 26.396 135.747 26.648C134.415 26.9 133.227 25.928 132.435 24.812C132.039 24.272 131.751 23.732 131.607 23.228C131.139 21.464 131.139 18.476 131.247 16.928C131.247 16.604 131.247 15.956 131.211 14.984C131.175 14.048 131.175 13.292 131.211 12.752C131.247 10.844 131.607 9.332 132.219 8.288C132.939 7.028 134.199 6.632 135.459 6.956C136.503 7.28 137.475 8.18 137.799 9.296C138.231 10.556 138.231 11.384 138.087 12.392C138.051 12.968 137.547 13.4 136.971 13.364C136.395 13.328 135.963 12.824 135.999 12.248ZM144.89 12.86H145.178C145.61 12.824 145.97 12.788 146.222 12.824C148.202 12.824 149.462 13.508 150.074 16.1C150.506 18.116 150.47 20.996 149.93 23.12C149.246 25.604 148.346 26.18 146.438 26.468C145.574 26.576 144.674 26.576 144.062 26.18C143.234 25.64 143.054 24.416 143.018 23.12V20.564C142.982 19.808 142.874 17.9 142.658 14.84C142.442 11.816 142.334 9.476 142.334 7.856C142.334 7.28 142.802 6.812 143.378 6.812C143.954 6.812 144.422 7.28 144.422 7.856C144.422 9.26 144.494 10.952 144.602 12.896C144.674 12.86 144.782 12.86 144.89 12.86ZM145.106 20.492V23.012C145.142 23.552 145.178 23.948 145.25 24.272C145.25 24.308 145.25 24.38 145.286 24.416C145.322 24.452 145.358 24.452 145.394 24.452C145.826 24.452 146.942 24.344 147.23 24.092C147.482 23.912 147.698 23.408 147.914 22.58C148.346 20.816 148.418 18.296 148.022 16.568C147.698 15.02 147.302 14.912 146.186 14.912C145.97 14.876 145.682 14.876 145.322 14.912H145.07C144.926 14.948 144.818 14.948 144.746 14.948C144.926 17.612 145.07 19.448 145.106 20.492Z" fill="#424F6B"/>
</svg>
