<svg width="231" height="49" viewBox="0 0 231 49" fill="none" xmlns="http://www.w3.org/2000/svg">
<path d="M16.712 37.464L17.608 40.024L18.504 42.904L19.464 45.144C19.912 46.104 19.528 47.192 18.632 47.64C17.736 48.088 16.584 47.64 16.136 46.808C15.368 45.208 14.728 43.416 14.024 41.048C13.64 39.896 13.384 39.064 13.256 38.616C12.68 37.08 11.848 34.904 10.696 32.088L8.712 27.032C7.56 27.608 6.28 28.12 4.872 28.44C4.936 31.192 4.936 33.432 5 35.224L5.128 37.848C5.192 39.384 5.192 40.472 5.192 41.048C5.192 42.328 5.128 45.08 4.68 46.936C4.488 47.896 3.528 48.6 2.568 48.344C1.544 48.152 0.84 47.192 1.096 46.168C1.352 44.632 1.48 42.2 1.48 41.112C1.48 40.536 1.48 39.512 1.416 38.04L1.288 35.352C1.224 33.624 1.224 30.296 1.16 25.368C1.096 20.44 0.968 16.6 0.84 13.848L0.648 11.352C0.328 8.472 0.136 5.912 0.2 3.928C0.392 2.648 0.584 1.24 1.8 0.535999C2.44 0.216 3.144 0.151997 3.976 0.216C4.104 0.216 4.36 0.216 4.68 0.279999C4.872 0.343998 5 0.343998 5.064 0.343998C14.984 0.791996 17.608 13.656 14.536 20.824C13.896 22.36 13 23.704 11.848 24.792C12.232 25.88 13 27.8 14.216 30.68C15.368 33.56 16.2 35.864 16.712 37.464ZM4.168 3.992L3.976 3.928C3.912 3.992 3.912 4.12 3.912 4.248C3.848 5.784 3.976 8.152 4.296 11.096C4.488 12.568 4.552 13.464 4.552 13.72C4.68 16.472 4.744 20.12 4.808 24.664C11.016 22.808 13.576 17.368 11.08 8.984C10.12 5.72 8.264 4.248 4.936 4.056C4.744 4.056 4.488 4.056 4.168 3.992ZM29.0855 31.32C29.2775 35.608 29.7895 38.872 30.4935 40.984C31.2615 43.48 33.3735 44.248 34.7175 42.648C35.4215 41.88 36.5735 41.752 37.3415 42.456C38.1095 43.16 38.2375 44.312 37.5335 45.08C35.7415 47.128 33.3095 47.704 31.1975 46.872C27.1015 45.336 26.4615 41.368 25.8215 36.184C25.1815 31.064 24.9895 24.984 25.9495 20.696C26.5255 17.944 27.4215 15.96 28.7655 14.872C30.6215 13.336 32.6695 13.592 34.3975 14.936C36.8935 16.92 38.8135 21.656 38.8775 25.432C38.9415 27.8 38.3655 29.528 37.0855 30.616C36.5095 31.128 35.4855 31.256 34.6535 31.32C33.9495 31.384 33.0535 31.384 31.9655 31.384C31.1335 31.384 30.1735 31.384 29.0855 31.32ZM34.8455 27.544C35.1015 27.16 35.2295 26.52 35.1655 25.56C35.1015 22.68 33.5655 19.032 32.0935 17.816C31.8375 17.624 31.6455 17.56 31.5175 17.56C31.4535 17.496 31.3255 17.56 31.1975 17.688C29.8535 18.776 29.0215 22.744 29.0215 27.608C30.1735 27.672 31.1335 27.672 31.9655 27.672C32.9255 27.672 33.7575 27.672 34.3335 27.608C34.5255 27.608 34.7175 27.608 34.8455 27.544ZM49.105 15.32C48.977 11.544 48.785 8.152 48.465 5.144C48.401 4.12 49.105 3.16 50.129 3.096C51.153 3.032 52.113 3.736 52.177 4.76C52.497 7.832 52.689 11.288 52.817 15.192C53.649 15.128 54.417 15.128 55.121 15.128C56.145 15.128 56.977 15.96 56.977 16.984C56.977 18.008 56.145 18.84 55.121 18.84C54.481 18.84 53.777 18.84 52.945 18.904C53.009 20.312 53.009 22.424 53.073 25.304C53.265 34.328 53.585 41.048 54.033 45.592C54.097 46.616 53.393 47.576 52.369 47.64C51.345 47.704 50.385 47 50.321 45.976C49.873 41.048 49.553 34.2 49.361 25.432C49.297 22.488 49.297 20.376 49.233 19.032C48.273 19.096 47.505 19.096 46.801 19.096C45.777 19.096 44.945 18.264 44.945 17.24C44.945 16.216 45.777 15.384 46.801 15.384C47.505 15.384 48.273 15.384 49.105 15.32ZM66.782 15V15.448C68.19 14.424 69.918 14.104 71.966 14.424C72.99 14.616 73.694 15.576 73.502 16.6C73.31 17.624 72.35 18.328 71.326 18.136C68.702 17.624 67.55 19.224 67.294 23.256C67.23 23.832 67.23 24.408 67.23 25.048C67.294 26.264 67.358 27.352 67.358 28.632L67.614 31.576C67.806 33.112 67.87 34.2 67.87 34.904C67.998 39.384 68.062 42.008 67.998 42.84V43.288C68.062 43.736 68.126 43.992 68.126 44.12C68.126 45.208 67.934 46.296 66.654 46.744C66.078 46.936 65.502 46.808 64.926 46.424C63.966 45.848 63.646 44.888 63.902 43.544C64.094 42.776 64.158 42.648 63.966 41.624C63.902 41.048 63.902 40.6 63.838 40.28C63.774 39.32 63.71 38.104 63.774 36.568V33.112L63.646 28.568C63.582 27.416 63.518 26.328 63.518 25.368C63.198 19.032 63.07 15.64 63.07 15.128C63.07 14.104 63.838 13.208 64.862 13.208C65.886 13.208 66.782 13.976 66.782 15ZM86.546 13.336H87.57C88.21 13.336 88.722 13.592 89.106 14.104C89.298 14.168 90.45 14.808 90.898 15.256C91.282 15.64 91.73 16.408 92.178 17.56C93.138 19.928 93.778 26.52 93.842 32.728C93.906 36.248 93.714 39.192 93.33 41.624C93.01 44.376 92.242 46.68 90.898 47.768C89.362 48.984 86.098 48.728 84.626 47.896C83.026 47.064 82.13 44.632 81.618 41.624C80.658 36.248 80.466 28.12 80.978 22.168C81.298 18.776 81.874 16.536 82.578 15.448C83.346 14.296 84.242 13.592 85.266 13.4C85.586 13.336 86.034 13.336 86.546 13.336ZM88.722 18.968L88.338 17.944L88.082 17.816L86.994 17.112C86.93 17.112 86.93 17.112 86.866 17.048H86.034C85.97 17.112 85.842 17.304 85.65 17.496C85.266 18.072 84.946 19.736 84.69 22.488C84.178 28.12 84.306 36.056 85.266 40.92C85.458 42.136 85.714 43.16 86.034 43.864C86.162 44.184 86.29 44.504 86.482 44.696C86.802 44.824 87.186 44.888 87.698 44.888C88.018 44.888 88.338 44.888 88.594 44.824C88.786 44.632 88.914 44.312 89.042 43.864C89.298 43.16 89.49 42.264 89.682 41.048C90.386 36.696 90.194 29.656 89.682 24.28C89.362 21.592 89.042 19.8 88.722 18.968ZM101.417 1.112C103.017 1.112 105.385 0.919998 108.585 0.599998C111.849 0.216 114.345 0.0239983 116.073 0.0239983C117.097 0.0239983 117.929 0.855999 117.929 1.88C117.929 2.904 117.097 3.736 116.073 3.736C114.537 3.736 112.489 3.864 109.865 4.184C109.865 8.6 109.993 15.384 110.249 24.536C110.505 33.688 110.633 40.664 110.633 45.4C110.633 46.424 109.801 47.256 108.777 47.256C107.753 47.256 106.921 46.424 106.921 45.4C106.921 40.664 106.793 33.752 106.601 24.664C106.345 15.576 106.217 8.856 106.153 4.568C104.361 4.76 102.761 4.824 101.417 4.824C100.393 4.824 99.561 3.992 99.561 2.968C99.561 1.944 100.393 1.112 101.417 1.112ZM134.504 43.352L133.736 39.448L133.032 35.928C132.776 39.32 132.392 41.688 131.944 43.16C131.432 44.504 131.176 45.208 130.472 45.72C129.768 46.232 129 46.296 128.168 45.912C127.848 45.72 127.528 45.464 127.336 45.208L127.144 44.824V44.568C127.08 44.504 127.08 44.376 127.08 44.312C127.016 44.12 127.016 43.928 126.952 43.608L126.76 41.56L126.312 37.464L124.968 27.544C124.072 21.464 123.623 16.856 123.623 13.656C123.623 12.632 124.456 11.8 125.48 11.8C126.504 11.8 127.336 12.632 127.336 13.656C127.336 16.728 127.72 20.696 128.04 23.064L128.808 28.056C129.128 30.232 129.32 31.768 129.448 32.728C129.512 31.512 129.64 29.72 129.704 27.288C129.896 22.488 129.896 22.104 130.152 19.48L130.408 16.536V15.256C130.344 14.552 130.344 14.296 130.536 13.976C130.6 13.656 130.792 13.4 131.048 13.208C131.624 12.696 132.264 12.568 132.968 12.888C133.288 13.08 133.608 13.272 133.8 13.592C133.992 13.784 134.056 13.976 134.12 14.232C134.44 15.256 134.568 16.536 134.568 18.136V19.864C134.568 20.952 134.568 21.528 134.632 21.528C134.888 25.176 135.592 30.04 136.808 35.992C137 31.512 137.448 24.6 138.024 15.256C138.088 14.232 138.984 13.464 140.008 13.528C141.032 13.592 141.8 14.488 141.736 15.512C141.032 25.944 140.583 33.624 140.392 38.552C140.135 43.352 140.072 44.12 139.56 45.4C139.112 46.616 138.216 47.832 136.488 47.384C135.272 47.064 134.632 46.168 134.696 44.696V44.12C134.632 43.992 134.568 43.736 134.504 43.352ZM152.748 10.072L152.108 9.88C150.38 10.072 149.228 8.792 149.292 7.192C149.228 6.872 149.292 6.552 149.484 6.232C149.548 5.912 149.676 5.656 149.868 5.4C151.084 3.16 153.004 2.456 154.476 2.968C156.012 3.48 156.908 5.08 156.652 6.872C156.396 8.6 155.052 10.392 152.748 10.072ZM154.54 15.192C154.732 22.424 154.796 32.792 154.796 46.296C154.796 47.32 153.964 48.152 152.94 48.152C151.916 48.152 151.084 47.32 151.084 46.296C151.084 32.792 151.02 22.424 150.828 15.32C150.828 14.296 151.596 13.4 152.62 13.4C153.644 13.4 154.54 14.168 154.54 15.192ZM163.524 37.784V36.312C163.524 35.288 164.292 34.392 165.316 34.392C166.34 34.392 167.236 35.16 167.236 36.184V37.912C167.236 39.256 167.3 39.832 167.428 40.856C167.492 41.368 167.556 41.816 167.684 42.2C168.388 44.568 170.692 44.888 171.78 42.648C173.06 40.088 172.612 34.008 171.14 32.536C170.756 32.152 169.924 31.704 168.644 31.256C164.996 29.976 163.076 27.928 163.332 21.592C163.524 18.328 163.588 15.896 165.316 14.104C167.172 12.312 169.796 12.12 171.588 13.336C173.316 14.296 174.596 16.088 174.916 18.072C174.98 18.648 174.98 19.608 174.916 20.952C174.852 21.272 174.852 21.528 174.852 21.848C174.788 22.168 174.788 22.488 174.788 22.744C174.724 23.064 174.724 23.256 174.724 23.32C174.66 24.344 173.764 25.112 172.74 25.048C171.716 24.984 170.948 24.088 171.012 23.064C171.012 23 171.012 22.808 171.076 22.488C171.076 22.232 171.076 21.912 171.14 21.592C171.14 21.272 171.14 21.016 171.204 20.76C171.268 18.52 171.46 17.496 169.732 16.536C168.452 15.768 167.556 16.728 167.236 18.712C167.044 19.672 166.596 24.792 167.812 26.52C168.132 26.968 168.772 27.416 169.86 27.8C173.636 29.144 175.684 30.616 176.132 36.312C176.388 39.704 176.068 42.392 175.108 44.312C173.892 46.808 171.588 48.152 169.22 47.832C166.852 47.576 164.932 45.848 164.1 43.352C163.78 42.264 163.588 40.664 163.588 39.64C163.524 39.128 163.524 38.488 163.524 37.784ZM186.418 15.32C186.29 11.544 186.098 8.152 185.778 5.144C185.714 4.12 186.418 3.16 187.442 3.096C188.466 3.032 189.426 3.736 189.49 4.76C189.81 7.832 190.002 11.288 190.13 15.192C190.962 15.128 191.73 15.128 192.434 15.128C193.458 15.128 194.29 15.96 194.29 16.984C194.29 18.008 193.458 18.84 192.434 18.84C191.794 18.84 191.09 18.84 190.258 18.904C190.322 20.312 190.322 22.424 190.385 25.304C190.578 34.328 190.898 41.048 191.345 45.592C191.41 46.616 190.706 47.576 189.682 47.64C188.658 47.704 187.698 47 187.634 45.976C187.186 41.048 186.866 34.2 186.674 25.432C186.61 22.488 186.61 20.376 186.546 19.032C185.586 19.096 184.818 19.096 184.114 19.096C183.09 19.096 182.258 18.264 182.258 17.24C182.258 16.216 183.09 15.384 184.114 15.384C184.818 15.384 185.586 15.384 186.418 15.32ZM203.711 31.32C203.903 35.608 204.415 38.872 205.119 40.984C205.887 43.48 207.999 44.248 209.343 42.648C210.047 41.88 211.199 41.752 211.967 42.456C212.735 43.16 212.863 44.312 212.159 45.08C210.367 47.128 207.935 47.704 205.823 46.872C201.727 45.336 201.087 41.368 200.447 36.184C199.806 31.064 199.614 24.984 200.575 20.696C201.151 17.944 202.047 15.96 203.391 14.872C205.247 13.336 207.295 13.592 209.023 14.936C211.519 16.92 213.439 21.656 213.503 25.432C213.567 27.8 212.991 29.528 211.711 30.616C211.135 31.128 210.111 31.256 209.279 31.32C208.575 31.384 207.679 31.384 206.591 31.384C205.759 31.384 204.799 31.384 203.711 31.32ZM209.47 27.544C209.727 27.16 209.855 26.52 209.791 25.56C209.727 22.68 208.191 19.032 206.719 17.816C206.463 17.624 206.271 17.56 206.143 17.56C206.079 17.496 205.951 17.56 205.823 17.688C204.479 18.776 203.647 22.744 203.647 27.608C204.799 27.672 205.759 27.672 206.591 27.672C207.551 27.672 208.383 27.672 208.959 27.608C209.151 27.608 209.343 27.608 209.47 27.544ZM223.282 15V15.448C224.69 14.424 226.418 14.104 228.466 14.424C229.49 14.616 230.194 15.576 230.002 16.6C229.81 17.624 228.85 18.328 227.826 18.136C225.202 17.624 224.05 19.224 223.794 23.256C223.73 23.832 223.73 24.408 223.73 25.048C223.794 26.264 223.858 27.352 223.858 28.632L224.114 31.576C224.306 33.112 224.37 34.2 224.37 34.904C224.498 39.384 224.562 42.008 224.498 42.84V43.288C224.562 43.736 224.626 43.992 224.626 44.12C224.626 45.208 224.434 46.296 223.154 46.744C222.578 46.936 222.002 46.808 221.426 46.424C220.466 45.848 220.146 44.888 220.402 43.544C220.594 42.776 220.658 42.648 220.466 41.624C220.402 41.048 220.402 40.6 220.338 40.28C220.274 39.32 220.21 38.104 220.274 36.568V33.112L220.146 28.568C220.082 27.416 220.018 26.328 220.018 25.368C219.698 19.032 219.57 15.64 219.57 15.128C219.57 14.104 220.338 13.208 221.362 13.208C222.386 13.208 223.282 13.976 223.282 15Z" fill="#FF9784"/>
</svg>
